<?xml version="1.0" encoding="UTF-8"?>
<svg width="700pt" height="700pt" version="1.1" viewBox="0 0 700 700" xmlns="http://www.w3.org/2000/svg" xmlns:xlink="http://www.w3.org/1999/xlink">
 <defs>
  <symbol id="s" overflow="visible">
   <path d="m3.6562-0.21875c-0.1875 0.09375-0.38672 0.16797-0.59375 0.21875-0.19922 0.050781-0.40625 0.078125-0.625 0.078125-0.66797 0-1.1992-0.17969-1.5938-0.54688-0.38672-0.375-0.57812-0.87891-0.57812-1.5156 0-0.64453 0.19141-1.1484 0.57812-1.5156 0.39453-0.375 0.92578-0.5625 1.5938-0.5625 0.21875 0 0.42578 0.027344 0.625 0.078125 0.20703 0.054687 0.40625 0.125 0.59375 0.21875v0.82812c-0.1875-0.125-0.375-0.21875-0.5625-0.28125-0.17969-0.0625-0.37109-0.09375-0.57812-0.09375-0.36719 0-0.65625 0.12109-0.875 0.35938-0.21094 0.23047-0.3125 0.55469-0.3125 0.96875 0 0.40625 0.10156 0.73047 0.3125 0.96875 0.21875 0.23047 0.50781 0.34375 0.875 0.34375 0.20703 0 0.39844-0.023437 0.57812-0.078125 0.1875-0.0625 0.375-0.16016 0.5625-0.29688z"/>
  </symbol>
  <symbol id="d" overflow="visible">
   <path d="m2.6875-2.1719c-0.085938-0.039063-0.16797-0.070313-0.25-0.09375-0.085938-0.019531-0.16797-0.03125-0.25-0.03125-0.25 0-0.44531 0.085937-0.57812 0.25-0.125 0.15625-0.1875 0.38281-0.1875 0.67188v1.375h-0.96875v-2.9844h0.96875v0.48438c0.11328-0.19531 0.25-0.33594 0.40625-0.42188 0.16406-0.09375 0.35938-0.14062 0.57812-0.14062h0.10938c0.039063 0 0.09375 0.007812 0.15625 0.015625z"/>
  </symbol>
  <symbol id="a" overflow="visible">
   <path d="m3.4375-1.5v0.26562h-2.2344c0.03125 0.23047 0.11328 0.40234 0.25 0.51562 0.13281 0.10547 0.32812 0.15625 0.57812 0.15625 0.20703 0 0.41406-0.023438 0.625-0.078125 0.20703-0.0625 0.42188-0.15625 0.64062-0.28125v0.73438c-0.21875 0.09375-0.44531 0.16406-0.67188 0.20312-0.23047 0.039062-0.45312 0.0625-0.67188 0.0625-0.54297 0-0.96484-0.13281-1.2656-0.40625-0.30469-0.28125-0.45312-0.67188-0.45312-1.1719 0-0.47656 0.14453-0.85938 0.4375-1.1406 0.30078-0.28125 0.70703-0.42188 1.2188-0.42188 0.46875 0 0.84375 0.14062 1.125 0.42188s0.42188 0.66406 0.42188 1.1406zm-0.96875-0.32812c0-0.17578-0.058594-0.31641-0.17188-0.42188-0.10547-0.11328-0.24219-0.17188-0.40625-0.17188-0.1875 0-0.33984 0.054687-0.45312 0.15625-0.11719 0.10547-0.1875 0.25-0.21875 0.4375z"/>
  </symbol>
  <symbol id="j" overflow="visible">
   <path d="m1.7969-1.3438c-0.19922 0-0.35156 0.039062-0.45312 0.10938-0.09375 0.0625-0.14062 0.16406-0.14062 0.29688 0 0.11719 0.035156 0.21094 0.10938 0.28125 0.082031 0.0625 0.19531 0.09375 0.34375 0.09375 0.17578 0 0.32812-0.0625 0.45312-0.1875s0.1875-0.28516 0.1875-0.48438v-0.10938zm1.4688-0.35938v1.7031h-0.96875v-0.4375c-0.125 0.17969-0.27344 0.30859-0.4375 0.39062-0.15625 0.082031-0.35156 0.125-0.57812 0.125-0.3125 0-0.57031-0.085938-0.76562-0.26562-0.1875-0.1875-0.28125-0.42188-0.28125-0.70312 0-0.35156 0.11719-0.61328 0.35938-0.78125 0.23828-0.16406 0.61719-0.25 1.1406-0.25h0.5625v-0.0625c0-0.15625-0.0625-0.26562-0.1875-0.32812-0.11719-0.070312-0.29688-0.10938-0.54688-0.10938-0.21094 0-0.40234 0.023437-0.57812 0.0625-0.17969 0.042969-0.33984 0.10156-0.48438 0.17188v-0.71875c0.19531-0.050781 0.39844-0.085938 0.60938-0.10938 0.20703-0.03125 0.41406-0.046875 0.625-0.046875 0.53906 0 0.92969 0.10938 1.1719 0.32812 0.23828 0.21094 0.35938 0.55469 0.35938 1.0312z"/>
  </symbol>
  <symbol id="c" overflow="visible">
   <path d="m1.5-3.8438v0.85938h0.98438v0.67188h-0.98438v1.2812c0 0.13672 0.023438 0.23047 0.078125 0.28125 0.0625 0.042969 0.17578 0.0625 0.34375 0.0625h0.48438v0.6875h-0.8125c-0.38672 0-0.65625-0.078125-0.8125-0.23438s-0.23438-0.42188-0.23438-0.79688v-1.2812h-0.46875v-0.67188h0.46875v-0.85938z"/>
  </symbol>
  <symbol id="i" overflow="visible">
   <path d="m2.5-2.5469v-1.6094h0.95312v4.1562h-0.95312v-0.4375c-0.13672 0.17969-0.28125 0.30859-0.4375 0.39062-0.15625 0.082031-0.33984 0.125-0.54688 0.125-0.375 0-0.68359-0.14453-0.92188-0.4375-0.23047-0.28906-0.34375-0.67188-0.34375-1.1406 0-0.45703 0.11328-0.83203 0.34375-1.125 0.23828-0.28906 0.54688-0.4375 0.92188-0.4375 0.19531 0 0.375 0.042969 0.53125 0.125 0.16406 0.085938 0.31641 0.21484 0.45312 0.39062zm-0.64062 1.9375c0.20703 0 0.36328-0.070313 0.46875-0.21875 0.11328-0.15625 0.17188-0.37891 0.17188-0.67188 0-0.28125-0.058594-0.49219-0.17188-0.64062-0.10547-0.15625-0.26172-0.23438-0.46875-0.23438-0.19922 0-0.35547 0.078125-0.46875 0.23438-0.10547 0.14844-0.15625 0.35938-0.15625 0.64062 0 0.29297 0.050781 0.51562 0.15625 0.67188 0.11328 0.14844 0.26953 0.21875 0.46875 0.21875z"/>
  </symbol>
  <symbol id="h" overflow="visible">
   <path d="m2.0469-0.60938c0.20703 0 0.36328-0.070313 0.46875-0.21875 0.11328-0.15625 0.17188-0.37891 0.17188-0.67188 0-0.28125-0.058594-0.49219-0.17188-0.64062-0.10547-0.15625-0.26172-0.23438-0.46875-0.23438-0.19922 0-0.35547 0.078125-0.46875 0.23438-0.10547 0.14844-0.15625 0.35938-0.15625 0.64062 0 0.29297 0.050781 0.51562 0.15625 0.67188 0.11328 0.14844 0.26953 0.21875 0.46875 0.21875zm-0.625-1.9375c0.125-0.17578 0.26562-0.30469 0.42188-0.39062 0.16406-0.082031 0.35156-0.125 0.5625-0.125 0.36328 0 0.66406 0.14844 0.90625 0.4375 0.23828 0.29297 0.35938 0.66797 0.35938 1.125 0 0.46875-0.12109 0.85156-0.35938 1.1406-0.24219 0.29297-0.54297 0.4375-0.90625 0.4375-0.21094 0-0.39844-0.042969-0.5625-0.125-0.15625-0.082031-0.29688-0.21094-0.42188-0.39062v0.4375h-0.96875v-4.1562h0.96875z"/>
  </symbol>
  <symbol id="g" overflow="visible">
   <path d="m0.0625-2.9844h0.95312l0.8125 2.0156 0.6875-2.0156h0.95312l-1.2656 3.2656c-0.125 0.33203-0.27344 0.56641-0.4375 0.70312-0.16797 0.13281-0.39062 0.20312-0.67188 0.20312h-0.54688v-0.64062h0.29688c0.16406 0 0.28516-0.027344 0.35938-0.078125 0.070313-0.054688 0.12891-0.14062 0.17188-0.26562l0.03125-0.09375z"/>
  </symbol>
  <symbol id="f" overflow="visible">
   <path d="m2.9219-0.71875h-1.6094l-0.25 0.71875h-1.0312l1.4688-3.9844h1.2344l1.4688 3.9844h-1.0312zm-1.3594-0.75h1.0938l-0.53125-1.5781z"/>
  </symbol>
  <symbol id="b" overflow="visible">
   <path d="m1.875-2.375c-0.21094 0-0.37109 0.078125-0.48438 0.23438-0.10547 0.14844-0.15625 0.35938-0.15625 0.64062 0 0.29297 0.050781 0.51562 0.15625 0.67188 0.11328 0.14844 0.27344 0.21875 0.48438 0.21875 0.20703 0 0.36719-0.070313 0.48438-0.21875 0.11328-0.15625 0.17188-0.37891 0.17188-0.67188 0-0.28125-0.058594-0.49219-0.17188-0.64062-0.11719-0.15625-0.27734-0.23438-0.48438-0.23438zm0-0.6875c0.51953 0 0.92188 0.14062 1.2031 0.42188 0.28906 0.27344 0.4375 0.65234 0.4375 1.1406 0 0.5-0.14844 0.89062-0.4375 1.1719-0.28125 0.27344-0.68359 0.40625-1.2031 0.40625-0.51172 0-0.91406-0.13281-1.2031-0.40625-0.29297-0.28125-0.4375-0.67188-0.4375-1.1719 0-0.48828 0.14453-0.86719 0.4375-1.1406 0.28906-0.28125 0.69141-0.42188 1.2031-0.42188z"/>
  </symbol>
  <symbol id="e" overflow="visible">
   <path d="m3.2344-2.5c0.11328-0.17578 0.25391-0.3125 0.42188-0.40625 0.16406-0.10156 0.35156-0.15625 0.5625-0.15625 0.33203 0 0.58594 0.10938 0.76562 0.32812 0.1875 0.21094 0.28125 0.51172 0.28125 0.90625v1.8281h-0.96875v-1.5625c0.007813-0.019531 0.015625-0.039062 0.015625-0.0625v-0.10938c0-0.21875-0.03125-0.375-0.09375-0.46875s-0.16406-0.14062-0.29688-0.14062c-0.1875 0-0.33594 0.078125-0.4375 0.23438-0.09375 0.14844-0.14062 0.35938-0.14062 0.64062v1.4688h-0.96875v-1.5625c0-0.33203-0.03125-0.54688-0.09375-0.64062-0.054688-0.09375-0.15234-0.14062-0.29688-0.14062-0.17969 0-0.32031 0.078125-0.42188 0.23438-0.09375 0.14844-0.14062 0.35938-0.14062 0.64062v1.4688h-0.96875v-2.9844h0.96875v0.4375c0.11328-0.17578 0.24219-0.30469 0.39062-0.39062 0.15625-0.082031 0.32812-0.125 0.51562-0.125 0.20703 0 0.39062 0.054688 0.54688 0.15625 0.15625 0.09375 0.27344 0.23047 0.35938 0.40625z"/>
  </symbol>
  <symbol id="r" overflow="visible">
   <path d="m2.4219-4.1562v0.625h-0.51562c-0.13672 0-0.23438 0.027344-0.29688 0.078125-0.054687 0.054687-0.078125 0.13672-0.078125 0.25v0.21875h0.82812v0.67188h-0.82812v2.3125h-0.95312v-2.3125h-0.46875v-0.67188h0.46875v-0.21875c0-0.32031 0.085937-0.5625 0.26562-0.71875 0.1875-0.15625 0.47266-0.23438 0.85938-0.23438z"/>
  </symbol>
  <symbol id="q" overflow="visible">
   <path d="m3.4688-1.8281v1.8281h-0.96875v-1.3906c0-0.25781-0.007812-0.4375-0.015625-0.53125-0.011719-0.10156-0.03125-0.17578-0.0625-0.21875-0.03125-0.0625-0.085937-0.10938-0.15625-0.14062-0.0625-0.039062-0.13281-0.0625-0.20312-0.0625-0.21094 0-0.37109 0.078125-0.48438 0.23438-0.10547 0.15625-0.15625 0.37109-0.15625 0.64062v1.4688h-0.96875v-4.1562h0.96875v1.6094c0.13281-0.17578 0.28516-0.30469 0.45312-0.39062 0.16406-0.082031 0.34375-0.125 0.53125-0.125 0.34375 0 0.60156 0.10938 0.78125 0.32812 0.1875 0.21094 0.28125 0.51172 0.28125 0.90625z"/>
  </symbol>
  <symbol id="p" overflow="visible">
   <path d="m0.5-3.9844h1.1562l1.4375 2.7344v-2.7344h0.98438v3.9844h-1.1562l-1.4375-2.7344v2.7344h-0.98438z"/>
  </symbol>
  <symbol id="o" overflow="visible">
   <path d="m0.42188-1.1719v-1.8125h0.96875v0.29688 0.60938 0.48438c0 0.24219 0.003906 0.41797 0.015625 0.53125 0.007812 0.10547 0.03125 0.17969 0.0625 0.21875 0.039062 0.0625 0.09375 0.11719 0.15625 0.15625 0.0625 0.03125 0.13281 0.046875 0.21875 0.046875 0.19531 0 0.35156-0.078125 0.46875-0.23438 0.11328-0.15625 0.17188-0.36719 0.17188-0.64062v-1.4688h0.95312v2.9844h-0.95312v-0.4375c-0.14844 0.17969-0.30469 0.30859-0.46875 0.39062-0.15625 0.082031-0.33594 0.125-0.53125 0.125-0.34375 0-0.60938-0.10156-0.79688-0.3125-0.17969-0.21875-0.26562-0.53125-0.26562-0.9375z"/>
  </symbol>
  <symbol id="n" overflow="visible">
   <path d="m3.4688-1.8281v1.8281h-0.96875v-1.3906c0-0.25781-0.007812-0.4375-0.015625-0.53125-0.011719-0.10156-0.03125-0.17578-0.0625-0.21875-0.03125-0.0625-0.085937-0.10938-0.15625-0.14062-0.0625-0.039062-0.13281-0.0625-0.20312-0.0625-0.21094 0-0.37109 0.078125-0.48438 0.23438-0.10547 0.15625-0.15625 0.37109-0.15625 0.64062v1.4688h-0.96875v-2.9844h0.96875v0.4375c0.13281-0.17578 0.28516-0.30469 0.45312-0.39062 0.16406-0.082031 0.34375-0.125 0.53125-0.125 0.34375 0 0.60156 0.10938 0.78125 0.32812 0.1875 0.21094 0.28125 0.51172 0.28125 0.90625z"/>
  </symbol>
  <symbol id="m" overflow="visible">
   <path d="m0.5-3.9844h1.7031c0.50781 0 0.89844 0.11719 1.1719 0.34375 0.26953 0.21875 0.40625 0.53906 0.40625 0.95312 0 0.41797-0.13672 0.74219-0.40625 0.96875-0.27344 0.21875-0.66406 0.32812-1.1719 0.32812h-0.67188v1.3906h-1.0312zm1.0312 0.75v1.1094h0.5625c0.19531 0 0.34766-0.046875 0.45312-0.14062 0.11328-0.10156 0.17188-0.24219 0.17188-0.42188 0-0.17578-0.058594-0.3125-0.17188-0.40625-0.10547-0.09375-0.25781-0.14062-0.45312-0.14062z"/>
  </symbol>
  <symbol id="l" overflow="visible">
   <path d="m0.45312-2.9844h0.96875v2.9375c0 0.39453-0.10156 0.69531-0.29688 0.90625-0.1875 0.21875-0.46484 0.32812-0.82812 0.32812h-0.48438v-0.64062h0.17188c0.17578 0 0.29688-0.042969 0.35938-0.125 0.070312-0.074219 0.10938-0.23047 0.10938-0.46875zm0-1.1719h0.96875v0.78125h-0.96875z"/>
  </symbol>
  <symbol id="k" overflow="visible">
   <path d="m2.875-2.8906v0.76562c-0.125-0.082031-0.25781-0.14453-0.39062-0.1875-0.13672-0.039062-0.27344-0.0625-0.40625-0.0625-0.27344 0-0.48047 0.078125-0.625 0.23438-0.14844 0.15625-0.21875 0.37109-0.21875 0.64062 0 0.28125 0.070313 0.5 0.21875 0.65625 0.14453 0.15625 0.35156 0.23438 0.625 0.23438 0.14453 0 0.28516-0.019531 0.42188-0.0625 0.13281-0.039063 0.25781-0.10938 0.375-0.20312v0.78125c-0.14844 0.0625-0.29688 0.10156-0.45312 0.125-0.15625 0.03125-0.3125 0.046875-0.46875 0.046875-0.54297 0-0.96484-0.13281-1.2656-0.40625-0.30469-0.28125-0.45312-0.67188-0.45312-1.1719 0-0.48828 0.14844-0.86719 0.45312-1.1406 0.30078-0.28125 0.72266-0.42188 1.2656-0.42188 0.15625 0 0.3125 0.015625 0.46875 0.046875 0.15625 0.023437 0.30469 0.0625 0.45312 0.125z"/>
  </symbol>
 </defs>
 <g>
  <path d="m582.32 134.01c-12.535 0.011719-24.555 5-33.418 13.863-8.8633 8.8633-13.852 20.883-13.867 33.418v21.535c-0.003906 5.4883-4.4531 9.9336-9.9414 9.9336h-3.5312v-11.047c0.007813-22.746-4.5195-45.266-13.32-66.238-8.8008-20.977-21.695-39.984-37.934-55.914l12.031-13.934c3.7383-4.6055 3.1289-11.348-1.3789-15.207-4.5039-3.8555-11.266-3.418-15.234 0.98828l-11.891 13.812c-26.844-20.52-59.18-32.605-92.902-34.727v-18.461c0-6.0391-4.8984-10.938-10.938-10.938s-10.938 4.8984-10.938 10.938v18.461c-33.723 2.1211-66.059 14.207-92.902 34.727l-11.891-13.812c-3.9688-4.4062-10.73-4.8438-15.234-0.98828-4.5078 3.8594-5.1172 10.602-1.3789 15.207l12.031 13.969c-16.23 15.926-29.125 34.926-37.926 55.895s-13.332 43.48-13.328 66.223v11.047h-3.5312c-5.4883 0-9.9375-4.4453-9.9414-9.9336v-21.535c0-16.891-9.0117-32.5-23.645-40.949-14.629-8.4453-32.652-8.4453-47.281 0-14.629 8.4492-23.641 24.059-23.641 40.949v21.535c0.027344 27.711 11.047 54.277 30.641 73.871s46.156 30.617 73.867 30.648h3.5312v29.191h-6.2109c-7.4766 0.011719-14.641 2.9883-19.926 8.2734s-8.2617 12.449-8.2734 19.926v31.961-0.003906c0.011718 7.4727 2.9883 14.637 8.2734 19.922 5.2852 5.2852 12.453 8.2578 19.926 8.2656h5.918l30.145 102.62h-0.003906c2.7031 9.0469 8.2461 16.98 15.805 22.637 7.5586 5.6523 16.734 8.7266 26.176 8.7656h199.48c9.4453-0.039062 18.621-3.1172 26.184-8.7773 7.5586-5.6562 13.098-13.598 15.797-22.645l30.145-102.62h12.785v-0.003906c7.4727-0.007813 14.637-2.9805 19.918-8.2656 5.2852-5.2812 8.2578-12.445 8.2656-19.918v-31.961c-0.007812-7.4727-2.9805-14.641-8.2617-19.926-5.2852-5.2852-12.449-8.2578-19.922-8.2695h-13.125v-29.172h3.5312c27.707-0.03125 54.266-11.051 73.859-30.641 19.59-19.59 30.613-46.152 30.648-73.855v-21.559c-0.015625-12.527-4.9961-24.539-13.848-33.402-8.8555-8.8633-20.863-13.855-33.391-13.879zm-111.56 387.31v-0.003906c-1.3477 4.5352-4.1211 8.5117-7.9102 11.34-3.7852 2.832-8.3828 4.3672-13.113 4.3789h-199.48c-4.7227-0.019531-9.3164-1.5547-13.094-4.3867-3.7812-2.832-6.5508-6.8047-7.8945-11.332l-28.34-96.457h298.13zm70.23-156.6v31.961-0.003906c0 3.4844-2.8281 6.3086-6.3125 6.3086h-362.46c-1.6758 0.003906-3.2852-0.66016-4.4688-1.8438-1.1875-1.1836-1.8555-2.7891-1.8555-4.4648v-31.961c0-3.4922 2.832-6.3203 6.3242-6.3203h362.43c3.4844 0.003906 6.3086 2.832 6.3086 6.3203zm66.773-161.88v-0.003906c-0.023437 21.914-8.7422 42.922-24.242 58.418-15.496 15.492-36.512 24.199-58.426 24.215h-14.469c-6.043 0-10.938 4.8984-10.938 10.938v40.129h-299.38v-40.129c0-2.9023-1.1523-5.6836-3.2031-7.7344s-4.832-3.2031-7.7344-3.2031h-14.469c-21.906-0.023438-42.91-8.7344-58.402-24.223-15.492-15.492-24.207-36.492-24.23-58.398v-21.559c0-9.0781 4.8438-17.465 12.703-22.004 7.8594-4.5391 17.547-4.5391 25.406 0 7.8633 4.5391 12.707 12.926 12.707 22.004v21.535c0.011718 8.4336 3.3672 16.52 9.332 22.48 5.9648 5.9648 14.051 9.3164 22.484 9.3281h14.469c2.9023 0 5.6836-1.1523 7.7344-3.207 2.0508-2.0508 3.2031-4.832 3.2031-7.7305v-21.984c0-82.492 67.145-149.69 149.69-149.7 82.523 0 149.67 67.156 149.67 149.7v21.984c0 2.8984 1.1523 5.6797 3.2031 7.7305 2.0508 2.0547 4.8359 3.207 7.7344 3.207h14.473c8.4336-0.011718 16.52-3.3633 22.484-9.3281 5.9648-5.9609 9.3203-14.047 9.332-22.48v-21.535c0-9.0781 4.8438-17.465 12.703-22.004 7.8594-4.5391 17.547-4.5391 25.406 0 7.8633 4.5391 12.707 12.926 12.707 22.004z"/>
  <path d="m319.11 192.15c0-12.762-5.0703-25.004-14.098-34.027-9.0234-9.0273-21.266-14.098-34.027-14.098-12.766 0-25.004 5.0703-34.031 14.098-9.0234 9.0234-14.094 21.266-14.094 34.027 0 12.766 5.0703 25.008 14.094 34.031 9.0273 9.0234 21.266 14.094 34.031 14.094 12.758-0.011719 24.992-5.0859 34.012-14.109 9.0234-9.0234 14.098-21.254 14.113-34.016zm-48.125 26.25c-6.9609 0-13.641-2.7656-18.562-7.6875-4.9219-4.9219-7.6875-11.598-7.6875-18.562 0-6.9609 2.7656-13.637 7.6875-18.559 4.9219-4.9258 11.602-7.6914 18.562-7.6914 6.9609 0 13.637 2.7656 18.562 7.6914 4.9219 4.9219 7.6875 11.598 7.6875 18.559 0.003907 6.9648-2.7617 13.645-7.6836 18.57-4.9258 4.9258-11.602 7.6914-18.566 7.6914z"/>
  <path d="m270.99 178.35c-5.5898-0.003906-10.633 3.3594-12.773 8.5234-2.1406 5.1602-0.95703 11.105 2.9922 15.059 3.9531 3.9531 9.8984 5.1328 15.062 2.9922 5.1602-2.1406 8.5273-7.1836 8.5195-12.773-0.011718-7.6172-6.1836-13.789-13.801-13.801z"/>
  <path d="m429.01 144.02c-12.762 0-25.004 5.0703-34.027 14.098-9.0273 9.0234-14.098 21.266-14.098 34.027 0 12.766 5.0703 25.008 14.098 34.031 9.0234 9.0234 21.266 14.094 34.027 14.094 12.766 0 25.004-5.0703 34.031-14.094 9.0234-9.0234 14.094-21.266 14.094-34.031-0.015625-12.758-5.0898-24.988-14.109-34.012-9.0234-9.0234-21.254-14.098-34.016-14.113zm0 74.375c-6.9609 0-13.637-2.7656-18.562-7.6875-4.9219-4.9219-7.6875-11.598-7.6875-18.562 0-6.9609 2.7656-13.637 7.6875-18.559 4.9258-4.9258 11.602-7.6914 18.562-7.6914 6.9609 0 13.641 2.7656 18.562 7.6914 4.9219 4.9219 7.6875 11.598 7.6875 18.559 0.003906 6.9648-2.7617 13.645-7.6836 18.57s-11.602 7.6914-18.566 7.6914z"/>
  <path d="m429.01 178.35c-5.5859 0-10.625 3.3672-12.762 8.5312-2.1367 5.1602-0.95312 11.105 3 15.055 3.9531 3.9492 9.8945 5.1289 15.055 2.9883 5.1641-2.1445 8.5273-7.1836 8.5234-12.773-0.007813-7.625-6.1914-13.801-13.816-13.801z"/>
  <path d="m350 226.7c-28.723 0-54.875 22.543-54.875 47.305 0 6.9219 2.1875 12.359 6.4766 16.133 7.5469 6.6289 17.805 5.3047 29.684 3.7617 6.1992-0.92969 12.449-1.457 18.715-1.5742 6.2656 0.11719 12.516 0.64453 18.715 1.5742 4.6406 0.70703 9.3203 1.1211 14.012 1.2461 5.9922 0 11.289-1.1602 15.672-5.0078 4.3867-3.8516 6.4766-9.2109 6.4766-16.133 0-24.766-26.152-47.305-54.875-47.305z"/>
  <use x="70" y="576.40625" xlink:href="#s"/>
  <use x="74.011719" y="576.40625" xlink:href="#d"/>
  <use x="76.710938" y="576.40625" xlink:href="#a"/>
  <use x="80.417969" y="576.40625" xlink:href="#j"/>
  <use x="84.109375" y="576.40625" xlink:href="#c"/>
  <use x="86.722656" y="576.40625" xlink:href="#a"/>
  <use x="90.433594" y="576.40625" xlink:href="#i"/>
  <use x="96.25" y="576.40625" xlink:href="#h"/>
  <use x="100.167969" y="576.40625" xlink:href="#g"/>
  <use x="105.636719" y="576.40625" xlink:href="#f"/>
  <use x="109.867188" y="576.40625" xlink:href="#b"/>
  <use x="113.625" y="576.40625" xlink:href="#e"/>
  <use x="119.324219" y="576.40625" xlink:href="#f"/>
  <use x="123.554688" y="576.40625" xlink:href="#e"/>
  <use x="70" y="581.875" xlink:href="#r"/>
  <use x="72.378906" y="581.875" xlink:href="#d"/>
  <use x="75.078125" y="581.875" xlink:href="#b"/>
  <use x="78.832031" y="581.875" xlink:href="#e"/>
  <use x="86.4375" y="581.875" xlink:href="#c"/>
  <use x="89.050781" y="581.875" xlink:href="#q"/>
  <use x="92.941406" y="581.875" xlink:href="#a"/>
  <use x="98.554688" y="581.875" xlink:href="#p"/>
  <use x="103.132812" y="581.875" xlink:href="#b"/>
  <use x="106.890625" y="581.875" xlink:href="#o"/>
  <use x="110.785156" y="581.875" xlink:href="#n"/>
  <use x="116.582031" y="581.875" xlink:href="#m"/>
  <use x="120.589844" y="581.875" xlink:href="#d"/>
  <use x="123.285156" y="581.875" xlink:href="#b"/>
  <use x="127.042969" y="581.875" xlink:href="#l"/>
  <use x="128.917969" y="581.875" xlink:href="#a"/>
  <use x="132.625" y="581.875" xlink:href="#k"/>
  <use x="135.867188" y="581.875" xlink:href="#c"/>
 </g>
</svg>
