<?xml version="1.0" encoding="UTF-8"?>
<svg width="700pt" height="700pt" version="1.1" viewBox="0 0 700 700" xmlns="http://www.w3.org/2000/svg" xmlns:xlink="http://www.w3.org/1999/xlink">
 <defs>
  <symbol id="s" overflow="visible">
   <path d="m3.6562-0.21875c-0.1875 0.09375-0.38672 0.16797-0.59375 0.21875-0.19922 0.050781-0.40625 0.078125-0.625 0.078125-0.66797 0-1.1992-0.17969-1.5938-0.54688-0.38672-0.375-0.57812-0.87891-0.57812-1.5156 0-0.64453 0.19141-1.1484 0.57812-1.5156 0.39453-0.375 0.92578-0.5625 1.5938-0.5625 0.21875 0 0.42578 0.027344 0.625 0.078125 0.20703 0.054687 0.40625 0.125 0.59375 0.21875v0.82812c-0.1875-0.125-0.375-0.21875-0.5625-0.28125-0.17969-0.0625-0.37109-0.09375-0.57812-0.09375-0.36719 0-0.65625 0.12109-0.875 0.35938-0.21094 0.23047-0.3125 0.55469-0.3125 0.96875 0 0.40625 0.10156 0.73047 0.3125 0.96875 0.21875 0.23047 0.50781 0.34375 0.875 0.34375 0.20703 0 0.39844-0.023437 0.57812-0.078125 0.1875-0.0625 0.375-0.16016 0.5625-0.29688z"/>
  </symbol>
  <symbol id="d" overflow="visible">
   <path d="m2.6875-2.1719c-0.085938-0.039063-0.16797-0.070313-0.25-0.09375-0.085938-0.019531-0.16797-0.03125-0.25-0.03125-0.25 0-0.44531 0.085937-0.57812 0.25-0.125 0.15625-0.1875 0.38281-0.1875 0.67188v1.375h-0.96875v-2.9844h0.96875v0.48438c0.11328-0.19531 0.25-0.33594 0.40625-0.42188 0.16406-0.09375 0.35938-0.14062 0.57812-0.14062h0.10938c0.039063 0 0.09375 0.007812 0.15625 0.015625z"/>
  </symbol>
  <symbol id="a" overflow="visible">
   <path d="m3.4375-1.5v0.26562h-2.2344c0.03125 0.23047 0.11328 0.40234 0.25 0.51562 0.13281 0.10547 0.32812 0.15625 0.57812 0.15625 0.20703 0 0.41406-0.023438 0.625-0.078125 0.20703-0.0625 0.42188-0.15625 0.64062-0.28125v0.73438c-0.21875 0.09375-0.44531 0.16406-0.67188 0.20312-0.23047 0.039062-0.45312 0.0625-0.67188 0.0625-0.54297 0-0.96484-0.13281-1.2656-0.40625-0.30469-0.28125-0.45312-0.67188-0.45312-1.1719 0-0.47656 0.14453-0.85938 0.4375-1.1406 0.30078-0.28125 0.70703-0.42188 1.2188-0.42188 0.46875 0 0.84375 0.14062 1.125 0.42188s0.42188 0.66406 0.42188 1.1406zm-0.96875-0.32812c0-0.17578-0.058594-0.31641-0.17188-0.42188-0.10547-0.11328-0.24219-0.17188-0.40625-0.17188-0.1875 0-0.33984 0.054687-0.45312 0.15625-0.11719 0.10547-0.1875 0.25-0.21875 0.4375z"/>
  </symbol>
  <symbol id="j" overflow="visible">
   <path d="m1.7969-1.3438c-0.19922 0-0.35156 0.039062-0.45312 0.10938-0.09375 0.0625-0.14062 0.16406-0.14062 0.29688 0 0.11719 0.035156 0.21094 0.10938 0.28125 0.082031 0.0625 0.19531 0.09375 0.34375 0.09375 0.17578 0 0.32812-0.0625 0.45312-0.1875s0.1875-0.28516 0.1875-0.48438v-0.10938zm1.4688-0.35938v1.7031h-0.96875v-0.4375c-0.125 0.17969-0.27344 0.30859-0.4375 0.39062-0.15625 0.082031-0.35156 0.125-0.57812 0.125-0.3125 0-0.57031-0.085938-0.76562-0.26562-0.1875-0.1875-0.28125-0.42188-0.28125-0.70312 0-0.35156 0.11719-0.61328 0.35938-0.78125 0.23828-0.16406 0.61719-0.25 1.1406-0.25h0.5625v-0.0625c0-0.15625-0.0625-0.26562-0.1875-0.32812-0.11719-0.070312-0.29688-0.10938-0.54688-0.10938-0.21094 0-0.40234 0.023437-0.57812 0.0625-0.17969 0.042969-0.33984 0.10156-0.48438 0.17188v-0.71875c0.19531-0.050781 0.39844-0.085938 0.60938-0.10938 0.20703-0.03125 0.41406-0.046875 0.625-0.046875 0.53906 0 0.92969 0.10938 1.1719 0.32812 0.23828 0.21094 0.35938 0.55469 0.35938 1.0312z"/>
  </symbol>
  <symbol id="c" overflow="visible">
   <path d="m1.5-3.8438v0.85938h0.98438v0.67188h-0.98438v1.2812c0 0.13672 0.023438 0.23047 0.078125 0.28125 0.0625 0.042969 0.17578 0.0625 0.34375 0.0625h0.48438v0.6875h-0.8125c-0.38672 0-0.65625-0.078125-0.8125-0.23438s-0.23438-0.42188-0.23438-0.79688v-1.2812h-0.46875v-0.67188h0.46875v-0.85938z"/>
  </symbol>
  <symbol id="i" overflow="visible">
   <path d="m2.5-2.5469v-1.6094h0.95312v4.1562h-0.95312v-0.4375c-0.13672 0.17969-0.28125 0.30859-0.4375 0.39062-0.15625 0.082031-0.33984 0.125-0.54688 0.125-0.375 0-0.68359-0.14453-0.92188-0.4375-0.23047-0.28906-0.34375-0.67188-0.34375-1.1406 0-0.45703 0.11328-0.83203 0.34375-1.125 0.23828-0.28906 0.54688-0.4375 0.92188-0.4375 0.19531 0 0.375 0.042969 0.53125 0.125 0.16406 0.085938 0.31641 0.21484 0.45312 0.39062zm-0.64062 1.9375c0.20703 0 0.36328-0.070313 0.46875-0.21875 0.11328-0.15625 0.17188-0.37891 0.17188-0.67188 0-0.28125-0.058594-0.49219-0.17188-0.64062-0.10547-0.15625-0.26172-0.23438-0.46875-0.23438-0.19922 0-0.35547 0.078125-0.46875 0.23438-0.10547 0.14844-0.15625 0.35938-0.15625 0.64062 0 0.29297 0.050781 0.51562 0.15625 0.67188 0.11328 0.14844 0.26953 0.21875 0.46875 0.21875z"/>
  </symbol>
  <symbol id="h" overflow="visible">
   <path d="m2.0469-0.60938c0.20703 0 0.36328-0.070313 0.46875-0.21875 0.11328-0.15625 0.17188-0.37891 0.17188-0.67188 0-0.28125-0.058594-0.49219-0.17188-0.64062-0.10547-0.15625-0.26172-0.23438-0.46875-0.23438-0.19922 0-0.35547 0.078125-0.46875 0.23438-0.10547 0.14844-0.15625 0.35938-0.15625 0.64062 0 0.29297 0.050781 0.51562 0.15625 0.67188 0.11328 0.14844 0.26953 0.21875 0.46875 0.21875zm-0.625-1.9375c0.125-0.17578 0.26562-0.30469 0.42188-0.39062 0.16406-0.082031 0.35156-0.125 0.5625-0.125 0.36328 0 0.66406 0.14844 0.90625 0.4375 0.23828 0.29297 0.35938 0.66797 0.35938 1.125 0 0.46875-0.12109 0.85156-0.35938 1.1406-0.24219 0.29297-0.54297 0.4375-0.90625 0.4375-0.21094 0-0.39844-0.042969-0.5625-0.125-0.15625-0.082031-0.29688-0.21094-0.42188-0.39062v0.4375h-0.96875v-4.1562h0.96875z"/>
  </symbol>
  <symbol id="g" overflow="visible">
   <path d="m0.0625-2.9844h0.95312l0.8125 2.0156 0.6875-2.0156h0.95312l-1.2656 3.2656c-0.125 0.33203-0.27344 0.56641-0.4375 0.70312-0.16797 0.13281-0.39062 0.20312-0.67188 0.20312h-0.54688v-0.64062h0.29688c0.16406 0 0.28516-0.027344 0.35938-0.078125 0.070313-0.054688 0.12891-0.14062 0.17188-0.26562l0.03125-0.09375z"/>
  </symbol>
  <symbol id="f" overflow="visible">
   <path d="m2.9219-0.71875h-1.6094l-0.25 0.71875h-1.0312l1.4688-3.9844h1.2344l1.4688 3.9844h-1.0312zm-1.3594-0.75h1.0938l-0.53125-1.5781z"/>
  </symbol>
  <symbol id="b" overflow="visible">
   <path d="m1.875-2.375c-0.21094 0-0.37109 0.078125-0.48438 0.23438-0.10547 0.14844-0.15625 0.35938-0.15625 0.64062 0 0.29297 0.050781 0.51562 0.15625 0.67188 0.11328 0.14844 0.27344 0.21875 0.48438 0.21875 0.20703 0 0.36719-0.070313 0.48438-0.21875 0.11328-0.15625 0.17188-0.37891 0.17188-0.67188 0-0.28125-0.058594-0.49219-0.17188-0.64062-0.11719-0.15625-0.27734-0.23438-0.48438-0.23438zm0-0.6875c0.51953 0 0.92188 0.14062 1.2031 0.42188 0.28906 0.27344 0.4375 0.65234 0.4375 1.1406 0 0.5-0.14844 0.89062-0.4375 1.1719-0.28125 0.27344-0.68359 0.40625-1.2031 0.40625-0.51172 0-0.91406-0.13281-1.2031-0.40625-0.29297-0.28125-0.4375-0.67188-0.4375-1.1719 0-0.48828 0.14453-0.86719 0.4375-1.1406 0.28906-0.28125 0.69141-0.42188 1.2031-0.42188z"/>
  </symbol>
  <symbol id="e" overflow="visible">
   <path d="m3.2344-2.5c0.11328-0.17578 0.25391-0.3125 0.42188-0.40625 0.16406-0.10156 0.35156-0.15625 0.5625-0.15625 0.33203 0 0.58594 0.10938 0.76562 0.32812 0.1875 0.21094 0.28125 0.51172 0.28125 0.90625v1.8281h-0.96875v-1.5625c0.007813-0.019531 0.015625-0.039062 0.015625-0.0625v-0.10938c0-0.21875-0.03125-0.375-0.09375-0.46875s-0.16406-0.14062-0.29688-0.14062c-0.1875 0-0.33594 0.078125-0.4375 0.23438-0.09375 0.14844-0.14062 0.35938-0.14062 0.64062v1.4688h-0.96875v-1.5625c0-0.33203-0.03125-0.54688-0.09375-0.64062-0.054688-0.09375-0.15234-0.14062-0.29688-0.14062-0.17969 0-0.32031 0.078125-0.42188 0.23438-0.09375 0.14844-0.14062 0.35938-0.14062 0.64062v1.4688h-0.96875v-2.9844h0.96875v0.4375c0.11328-0.17578 0.24219-0.30469 0.39062-0.39062 0.15625-0.082031 0.32812-0.125 0.51562-0.125 0.20703 0 0.39062 0.054688 0.54688 0.15625 0.15625 0.09375 0.27344 0.23047 0.35938 0.40625z"/>
  </symbol>
  <symbol id="r" overflow="visible">
   <path d="m2.4219-4.1562v0.625h-0.51562c-0.13672 0-0.23438 0.027344-0.29688 0.078125-0.054687 0.054687-0.078125 0.13672-0.078125 0.25v0.21875h0.82812v0.67188h-0.82812v2.3125h-0.95312v-2.3125h-0.46875v-0.67188h0.46875v-0.21875c0-0.32031 0.085937-0.5625 0.26562-0.71875 0.1875-0.15625 0.47266-0.23438 0.85938-0.23438z"/>
  </symbol>
  <symbol id="q" overflow="visible">
   <path d="m3.4688-1.8281v1.8281h-0.96875v-1.3906c0-0.25781-0.007812-0.4375-0.015625-0.53125-0.011719-0.10156-0.03125-0.17578-0.0625-0.21875-0.03125-0.0625-0.085937-0.10938-0.15625-0.14062-0.0625-0.039062-0.13281-0.0625-0.20312-0.0625-0.21094 0-0.37109 0.078125-0.48438 0.23438-0.10547 0.15625-0.15625 0.37109-0.15625 0.64062v1.4688h-0.96875v-4.1562h0.96875v1.6094c0.13281-0.17578 0.28516-0.30469 0.45312-0.39062 0.16406-0.082031 0.34375-0.125 0.53125-0.125 0.34375 0 0.60156 0.10938 0.78125 0.32812 0.1875 0.21094 0.28125 0.51172 0.28125 0.90625z"/>
  </symbol>
  <symbol id="p" overflow="visible">
   <path d="m0.5-3.9844h1.1562l1.4375 2.7344v-2.7344h0.98438v3.9844h-1.1562l-1.4375-2.7344v2.7344h-0.98438z"/>
  </symbol>
  <symbol id="o" overflow="visible">
   <path d="m0.42188-1.1719v-1.8125h0.96875v0.29688 0.60938 0.48438c0 0.24219 0.003906 0.41797 0.015625 0.53125 0.007812 0.10547 0.03125 0.17969 0.0625 0.21875 0.039062 0.0625 0.09375 0.11719 0.15625 0.15625 0.0625 0.03125 0.13281 0.046875 0.21875 0.046875 0.19531 0 0.35156-0.078125 0.46875-0.23438 0.11328-0.15625 0.17188-0.36719 0.17188-0.64062v-1.4688h0.95312v2.9844h-0.95312v-0.4375c-0.14844 0.17969-0.30469 0.30859-0.46875 0.39062-0.15625 0.082031-0.33594 0.125-0.53125 0.125-0.34375 0-0.60938-0.10156-0.79688-0.3125-0.17969-0.21875-0.26562-0.53125-0.26562-0.9375z"/>
  </symbol>
  <symbol id="n" overflow="visible">
   <path d="m3.4688-1.8281v1.8281h-0.96875v-1.3906c0-0.25781-0.007812-0.4375-0.015625-0.53125-0.011719-0.10156-0.03125-0.17578-0.0625-0.21875-0.03125-0.0625-0.085937-0.10938-0.15625-0.14062-0.0625-0.039062-0.13281-0.0625-0.20312-0.0625-0.21094 0-0.37109 0.078125-0.48438 0.23438-0.10547 0.15625-0.15625 0.37109-0.15625 0.64062v1.4688h-0.96875v-2.9844h0.96875v0.4375c0.13281-0.17578 0.28516-0.30469 0.45312-0.39062 0.16406-0.082031 0.34375-0.125 0.53125-0.125 0.34375 0 0.60156 0.10938 0.78125 0.32812 0.1875 0.21094 0.28125 0.51172 0.28125 0.90625z"/>
  </symbol>
  <symbol id="m" overflow="visible">
   <path d="m0.5-3.9844h1.7031c0.50781 0 0.89844 0.11719 1.1719 0.34375 0.26953 0.21875 0.40625 0.53906 0.40625 0.95312 0 0.41797-0.13672 0.74219-0.40625 0.96875-0.27344 0.21875-0.66406 0.32812-1.1719 0.32812h-0.67188v1.3906h-1.0312zm1.0312 0.75v1.1094h0.5625c0.19531 0 0.34766-0.046875 0.45312-0.14062 0.11328-0.10156 0.17188-0.24219 0.17188-0.42188 0-0.17578-0.058594-0.3125-0.17188-0.40625-0.10547-0.09375-0.25781-0.14062-0.45312-0.14062z"/>
  </symbol>
  <symbol id="l" overflow="visible">
   <path d="m0.45312-2.9844h0.96875v2.9375c0 0.39453-0.10156 0.69531-0.29688 0.90625-0.1875 0.21875-0.46484 0.32812-0.82812 0.32812h-0.48438v-0.64062h0.17188c0.17578 0 0.29688-0.042969 0.35938-0.125 0.070312-0.074219 0.10938-0.23047 0.10938-0.46875zm0-1.1719h0.96875v0.78125h-0.96875z"/>
  </symbol>
  <symbol id="k" overflow="visible">
   <path d="m2.875-2.8906v0.76562c-0.125-0.082031-0.25781-0.14453-0.39062-0.1875-0.13672-0.039062-0.27344-0.0625-0.40625-0.0625-0.27344 0-0.48047 0.078125-0.625 0.23438-0.14844 0.15625-0.21875 0.37109-0.21875 0.64062 0 0.28125 0.070313 0.5 0.21875 0.65625 0.14453 0.15625 0.35156 0.23438 0.625 0.23438 0.14453 0 0.28516-0.019531 0.42188-0.0625 0.13281-0.039063 0.25781-0.10938 0.375-0.20312v0.78125c-0.14844 0.0625-0.29688 0.10156-0.45312 0.125-0.15625 0.03125-0.3125 0.046875-0.46875 0.046875-0.54297 0-0.96484-0.13281-1.2656-0.40625-0.30469-0.28125-0.45312-0.67188-0.45312-1.1719 0-0.48828 0.14844-0.86719 0.45312-1.1406 0.30078-0.28125 0.72266-0.42188 1.2656-0.42188 0.15625 0 0.3125 0.015625 0.46875 0.046875 0.15625 0.023437 0.30469 0.0625 0.45312 0.125z"/>
  </symbol>
 </defs>
 <g>
  <path d="m623.44 357.01c3.3789-6.3555 6.6172-15.969 3.3359-26.336-3.2812-10.367-10.652-16.93-16.012-20.551-0.80859-5.6992-2.832-14.031-7.832-21.031-6.5625-9.1758-16.527-13.539-21.188-15.172-8.75-6.6172-16.965-8.8047-24.16-6.3125-19.152 6.6172-17.742 28.098-16.602 45.359 1.3672 20.781 1.3359 33.773-10.695 38.586-4.7578 1.9023-11.133 0.25-17.5-4.5391-10.695-8.0508-13.859-23.547-7.3398-36.094 17.891-34.203 40.105-76.859 40.105-117.71 0-50.773-21.164-98.176-59.586-133.44-37.102-34.035-85.617-52.918-135.96-52.918s-98.863 18.883-135.96 52.918c-38.422 35.297-59.586 82.699-59.586 133.44 0 40.875 22.215 83.496 40.062 117.75 6.5625 12.5 3.3594 28-7.3516 36.094-6.3438 4.7812-12.719 6.4297-17.5 4.5391-8.0273-3.2148-12.754-7.4141-10.695-38.586 1.0938-17.258 2.5469-38.742-16.602-45.359-7.1953-2.4922-15.453-0.30469-24.16 6.3125-4.6602 1.6289-14.633 6.0039-21.188 15.172-5 7-7.0234 15.312-7.832 21.031-5.3594 3.6211-12.754 10.238-16.012 20.551s0 19.984 3.3359 26.336c-3.9375 6.3125-7.9844 16.121-5.0742 27.125 2.6484 10.031 9.4727 16.484 15.215 20.312-1.2227 10.621 2.4219 21.227 9.9062 28.863 6.1953 6.5508 14.746 10.355 23.758 10.574 2.6875 8.0625 9.0078 14.391 17.062 17.086 3.8047 1.375 7.8203 2.0898 11.867 2.1094-16.047 9.3281-30.406 18.812-30.406 38.227 0 14.121 7.7539 25.824 21.875 32.934 1.457 0.73047 2.9727 1.4102 4.5391 2.0469 3.125 5.3672 7.6094 9.8125 13.008 12.883 5.3945 3.0742 11.508 4.668 17.715 4.6172 9.7227 0.050781 19.18-3.168 26.852-9.1445 9.2812 3.8555 19.457 5.0195 29.367 3.3672 11.031-1.7578 21.152-7.1836 28.723-15.398 8.3906 2.8008 21.48 4.375 36.301-3.8398 12.535-6.9688 18.66-16.023 21.602-22.391 0.28516-0.61328 0.53516-1.2148 0.77734-1.793 9.7148 0.14453 19.219-2.8242 27.125-8.4766 1.1641-0.82422 2.2617-1.7422 3.2812-2.7422 1.0195 1 2.1172 1.918 3.2812 2.7422 7.918 5.6406 17.43 8.6016 27.148 8.457 0.24219 0.57812 0.49219 1.1797 0.77734 1.793 2.9414 6.3672 9.0664 15.422 21.602 22.391 14.82 8.2344 27.914 6.6406 36.301 3.8398v-0.003907c7.5625 8.2383 17.68 13.688 28.719 15.469 9.9102 1.6328 20.078 0.44922 29.348-3.4141 7.6914 5.9766 17.176 9.1875 26.918 9.1211 6.207 0.050781 12.32-1.5391 17.715-4.6133 5.3945-3.0742 9.8828-7.5195 13.008-12.887 1.5742-0.63281 3.0898-1.3164 4.5391-2.0469 14.078-7.1094 21.875-18.812 21.875-32.934 0-19.414-14.359-28.898-30.406-38.227v0.003907c4.0469-0.023438 8.0586-0.73828 11.867-2.1133 8.0273-2.707 14.316-9.0234 16.996-17.062 9.0039-0.24219 17.535-4.0625 23.711-10.617 7.4883-7.6367 11.129-18.242 9.9102-28.867 5.7422-3.8281 12.566-10.281 15.215-20.312 2.9297-11-1.1172-20.812-5.0859-27.121zm-64.16 144.38c0 3.9258-1.0938 9.0117-9.8438 13.41-8.0156 4.0469-20.047 6.1914-34.77 6.1914-4.1992 0-8.543-0.17578-12.984-0.52344-0.30469-0.078125-0.61328-0.15234-0.92969-0.20703v-0.003906c-0.83594-0.14062-1.6914-0.16797-2.5352-0.089844-17.184-1.7305-34.121-5.3477-50.512-10.781-0.92969-0.55078-1.9414-0.94531-2.9961-1.1719-0.28516-0.066407-0.57812-0.097657-0.86328-0.14063-17.086-5.9375-33.359-13.75-46.898-23.055v-0.003906c-0.55469-0.64453-1.1836-1.2188-1.8711-1.7148-0.67578-0.49219-1.4102-0.89844-2.1875-1.2031-19.207-14.219-31.969-31.719-31.969-51.211h-0.003907c0-6.0391-4.8945-10.938-10.938-10.938-6.0391 0-10.938 4.8984-10.938 10.938 0 19.766-13.125 37.461-32.812 51.832-0.39453 0.21094-0.77734 0.4375-1.1484 0.69141-0.4375 0.30469-0.85156 0.64453-1.2344 1.0156-13.836 9.6562-30.625 17.73-48.211 23.812l-0.35156 0.054687c-0.91406 0.19141-1.8008 0.51172-2.625 0.94922-16.328 5.4414-33.195 9.0859-50.312 10.871-1.0195-0.15625-2.0547-0.15625-3.0742 0-0.57031 0.089844-1.1367 0.23047-1.6836 0.41797-4.1875 0.29688-8.2891 0.46094-12.273 0.46094-14.723 0-26.754-2.1875-34.77-6.1914-8.75-4.375-9.8438-9.4844-9.8438-13.41 0-7.3594 6.2109-11.637 22.652-21.121 21.688-12.512 51.406-29.652 70.59-73.688 2.418-5.5391-0.11328-11.988-5.6523-14.402-5.5391-2.418-11.988 0.11328-14.406 5.6523-7.6562 17.578-17.238 30.09-27.344 39.605-4.9883-0.21875-28.438-1.957-49.699-14.613-0.078125-0.054687-0.13281-0.12109-0.19531-0.17578l-0.003906 0.003907c-0.70703-0.55859-1.4805-1.0195-2.3047-1.3789-10.418-6.5469-18.977-15.66-24.852-26.469-0.066406-0.17578-0.12109-0.35938-0.19531-0.53516-0.26562-0.61328-0.59375-1.1953-0.97656-1.7422-1.5078-3.082-2.7969-6.2695-3.8594-9.5352-11.035-33.906 6.0469-64.992 11.551-73.719 8.6836-13.75 16.855-19.426 19.871-20.586 2.6133 2.5586 1.8281 14.656 1.2812 22.848-0.66797 10.148-1.4219 21.668 0.94141 32.125 3.1055 13.727 11.004 23.219 23.473 28.219 12.031 4.8008 26.152 2.1211 38.762-7.3711 19.141-14.414 24.98-41.77 13.586-63.633-16.746-32.133-37.594-72.133-37.594-107.65 0-44.57 18.648-86.254 52.5-117.36 33.062-30.328 76.297-47.152 121.16-47.152 44.867 0 88.102 16.824 121.17 47.152 33.906 31.105 52.5 72.789 52.5 117.36 0 35.516-20.848 75.469-37.594 107.65-11.398 21.875-5.5547 49.219 13.586 63.633 12.609 9.4922 26.742 12.172 38.762 7.3711 12.469-4.9883 20.367-14.48 23.473-28.207 2.3633-10.457 1.6094-21.973 0.94141-32.125-0.54688-8.1914-1.3359-20.289 1.2812-22.848 3.0195 1.0938 11.234 6.8359 19.875 20.562 5.4688 8.75 22.586 39.855 11.551 73.719h-0.007812c-1.1211 3.4141-2.4883 6.7461-4.0898 9.9648-0.24219 0.40625-0.46875 0.82031-0.67969 1.2461l-0.21875 0.55859h0.003906c-5.7461 10.75-14.18 19.828-24.48 26.348-0.89453 0.36719-1.7383 0.84375-2.5156 1.4219-0.19531 0.14844-0.38281 0.30859-0.55859 0.48047-4.6172 2.707-9.4531 5.0273-14.457 6.9336-11.246 4.2539-23.066 6.7852-35.066 7.5156-10.094-9.5273-19.688-22.027-27.344-39.605-2.418-5.5391-8.8672-8.0703-14.406-5.6523-5.5391 2.4141-8.0703 8.8633-5.6523 14.402 19.184 44.035 48.902 61.172 70.59 73.688 16.449 9.4375 22.664 13.715 22.664 21.074z"/>
  <path d="m335.7 198.27c0-14.555-5.7852-28.516-16.078-38.809-10.293-10.293-24.25-16.074-38.809-16.074-14.555 0-28.516 5.7812-38.809 16.074-10.293 10.293-16.074 24.254-16.074 38.809 0 14.559 5.7812 28.52 16.074 38.812 10.293 10.289 24.254 16.074 38.809 16.074 14.551-0.019531 28.5-5.8047 38.789-16.094 10.289-10.289 16.078-24.242 16.098-38.793zm-87.895 0c0-8.7539 3.4766-17.148 9.668-23.34s14.586-9.668 23.34-9.668 17.152 3.4766 23.344 9.668c6.1875 6.1914 9.668 14.586 9.668 23.34 0 8.7578-3.4805 17.152-9.668 23.344-6.1914 6.1875-14.59 9.668-23.344 9.668-8.75-0.011718-17.141-3.4922-23.328-9.6836-6.1875-6.1875-9.668-14.574-9.6797-23.328z"/>
  <path d="m304.02 198.27c0 12.82-10.391 23.211-23.211 23.211-12.816 0-23.207-10.391-23.207-23.211 0-12.816 10.391-23.207 23.207-23.207 12.82 0 23.211 10.391 23.211 23.207"/>
  <path d="m421.01 143.39c-14.559 0-28.52 5.7812-38.812 16.074-10.289 10.293-16.074 24.254-16.074 38.809 0 14.559 5.7852 28.52 16.074 38.812 10.293 10.289 24.254 16.074 38.812 16.074 14.555 0 28.516-5.7852 38.809-16.074 10.293-10.293 16.074-24.254 16.074-38.812-0.015625-14.551-5.8047-28.5-16.094-38.789s-24.238-16.078-38.789-16.094zm0 87.895c-8.7578 0-17.152-3.4805-23.344-9.668-6.1875-6.1914-9.668-14.586-9.668-23.344 0-8.7539 3.4805-17.148 9.668-23.34 6.1914-6.1914 14.586-9.668 23.344-9.668 8.7539 0 17.148 3.4766 23.34 9.668s9.668 14.586 9.668 23.34c-0.011719 8.7539-3.4922 17.141-9.6797 23.328-6.1875 6.1914-14.578 9.6719-23.328 9.6836z"/>
  <path d="m421.01 175.07c-6.1562 0.003906-12.059 2.4492-16.41 6.8047-4.3477 4.3516-6.793 10.258-6.7891 16.41 0 6.1562 2.4492 12.059 6.8008 16.41 4.3516 4.3516 10.258 6.793 16.41 6.793 6.1562 0 12.059-2.4453 16.41-6.8008 4.3516-4.3516 6.7969-10.254 6.7969-16.41-0.003906-6.1523-2.4531-12.055-6.8086-16.406-4.3516-4.3516-10.258-6.7969-16.41-6.8008z"/>
  <path d="m348.72 254.27c-40.031 0-70 31.566-70 59.785 0 8.1797 2.4922 14.523 7.4141 18.855 8.8711 7.7891 21.875 6.1016 36.926 4.1562h0.003906c8.4805-1.2891 17.035-2.0195 25.613-2.1875 8.582 0.16797 17.141 0.89844 25.629 2.1875 6.0273 0.91797 12.105 1.4609 18.199 1.6289 7.3164 0 13.684-1.3672 18.715-5.7852s7.4141-10.676 7.4141-18.855c0.042969-28.223-29.871-59.785-69.914-59.785z"/>
  <use x="70" y="576.40625" xlink:href="#s"/>
  <use x="74.011719" y="576.40625" xlink:href="#d"/>
  <use x="76.710938" y="576.40625" xlink:href="#a"/>
  <use x="80.417969" y="576.40625" xlink:href="#j"/>
  <use x="84.109375" y="576.40625" xlink:href="#c"/>
  <use x="86.722656" y="576.40625" xlink:href="#a"/>
  <use x="90.433594" y="576.40625" xlink:href="#i"/>
  <use x="96.25" y="576.40625" xlink:href="#h"/>
  <use x="100.167969" y="576.40625" xlink:href="#g"/>
  <use x="105.636719" y="576.40625" xlink:href="#f"/>
  <use x="109.867188" y="576.40625" xlink:href="#b"/>
  <use x="113.625" y="576.40625" xlink:href="#e"/>
  <use x="119.324219" y="576.40625" xlink:href="#f"/>
  <use x="123.554688" y="576.40625" xlink:href="#e"/>
  <use x="70" y="581.875" xlink:href="#r"/>
  <use x="72.378906" y="581.875" xlink:href="#d"/>
  <use x="75.078125" y="581.875" xlink:href="#b"/>
  <use x="78.832031" y="581.875" xlink:href="#e"/>
  <use x="86.4375" y="581.875" xlink:href="#c"/>
  <use x="89.050781" y="581.875" xlink:href="#q"/>
  <use x="92.941406" y="581.875" xlink:href="#a"/>
  <use x="98.554688" y="581.875" xlink:href="#p"/>
  <use x="103.132812" y="581.875" xlink:href="#b"/>
  <use x="106.890625" y="581.875" xlink:href="#o"/>
  <use x="110.785156" y="581.875" xlink:href="#n"/>
  <use x="116.582031" y="581.875" xlink:href="#m"/>
  <use x="120.589844" y="581.875" xlink:href="#d"/>
  <use x="123.285156" y="581.875" xlink:href="#b"/>
  <use x="127.042969" y="581.875" xlink:href="#l"/>
  <use x="128.917969" y="581.875" xlink:href="#a"/>
  <use x="132.625" y="581.875" xlink:href="#k"/>
  <use x="135.867188" y="581.875" xlink:href="#c"/>
 </g>
</svg>
