<?xml version="1.0" encoding="UTF-8"?>
<svg width="700pt" height="700pt" version="1.1" viewBox="0 0 700 700" xmlns="http://www.w3.org/2000/svg" xmlns:xlink="http://www.w3.org/1999/xlink">
 <defs>
  <symbol id="s" overflow="visible">
   <path d="m3.6562-0.21875c-0.1875 0.09375-0.38672 0.16797-0.59375 0.21875-0.19922 0.050781-0.40625 0.078125-0.625 0.078125-0.66797 0-1.1992-0.17969-1.5938-0.54688-0.38672-0.375-0.57812-0.87891-0.57812-1.5156 0-0.64453 0.19141-1.1484 0.57812-1.5156 0.39453-0.375 0.92578-0.5625 1.5938-0.5625 0.21875 0 0.42578 0.027344 0.625 0.078125 0.20703 0.054687 0.40625 0.125 0.59375 0.21875v0.82812c-0.1875-0.125-0.375-0.21875-0.5625-0.28125-0.17969-0.0625-0.37109-0.09375-0.57812-0.09375-0.36719 0-0.65625 0.12109-0.875 0.35938-0.21094 0.23047-0.3125 0.55469-0.3125 0.96875 0 0.40625 0.10156 0.73047 0.3125 0.96875 0.21875 0.23047 0.50781 0.34375 0.875 0.34375 0.20703 0 0.39844-0.023437 0.57812-0.078125 0.1875-0.0625 0.375-0.16016 0.5625-0.29688z"/>
  </symbol>
  <symbol id="d" overflow="visible">
   <path d="m2.6875-2.1719c-0.085938-0.039063-0.16797-0.070313-0.25-0.09375-0.085938-0.019531-0.16797-0.03125-0.25-0.03125-0.25 0-0.44531 0.085937-0.57812 0.25-0.125 0.15625-0.1875 0.38281-0.1875 0.67188v1.375h-0.96875v-2.9844h0.96875v0.48438c0.11328-0.19531 0.25-0.33594 0.40625-0.42188 0.16406-0.09375 0.35938-0.14062 0.57812-0.14062h0.10938c0.039063 0 0.09375 0.007812 0.15625 0.015625z"/>
  </symbol>
  <symbol id="a" overflow="visible">
   <path d="m3.4375-1.5v0.26562h-2.2344c0.03125 0.23047 0.11328 0.40234 0.25 0.51562 0.13281 0.10547 0.32812 0.15625 0.57812 0.15625 0.20703 0 0.41406-0.023438 0.625-0.078125 0.20703-0.0625 0.42188-0.15625 0.64062-0.28125v0.73438c-0.21875 0.09375-0.44531 0.16406-0.67188 0.20312-0.23047 0.039062-0.45312 0.0625-0.67188 0.0625-0.54297 0-0.96484-0.13281-1.2656-0.40625-0.30469-0.28125-0.45312-0.67188-0.45312-1.1719 0-0.47656 0.14453-0.85938 0.4375-1.1406 0.30078-0.28125 0.70703-0.42188 1.2188-0.42188 0.46875 0 0.84375 0.14062 1.125 0.42188s0.42188 0.66406 0.42188 1.1406zm-0.96875-0.32812c0-0.17578-0.058594-0.31641-0.17188-0.42188-0.10547-0.11328-0.24219-0.17188-0.40625-0.17188-0.1875 0-0.33984 0.054687-0.45312 0.15625-0.11719 0.10547-0.1875 0.25-0.21875 0.4375z"/>
  </symbol>
  <symbol id="j" overflow="visible">
   <path d="m1.7969-1.3438c-0.19922 0-0.35156 0.039062-0.45312 0.10938-0.09375 0.0625-0.14062 0.16406-0.14062 0.29688 0 0.11719 0.035156 0.21094 0.10938 0.28125 0.082031 0.0625 0.19531 0.09375 0.34375 0.09375 0.17578 0 0.32812-0.0625 0.45312-0.1875s0.1875-0.28516 0.1875-0.48438v-0.10938zm1.4688-0.35938v1.7031h-0.96875v-0.4375c-0.125 0.17969-0.27344 0.30859-0.4375 0.39062-0.15625 0.082031-0.35156 0.125-0.57812 0.125-0.3125 0-0.57031-0.085938-0.76562-0.26562-0.1875-0.1875-0.28125-0.42188-0.28125-0.70312 0-0.35156 0.11719-0.61328 0.35938-0.78125 0.23828-0.16406 0.61719-0.25 1.1406-0.25h0.5625v-0.0625c0-0.15625-0.0625-0.26562-0.1875-0.32812-0.11719-0.070312-0.29688-0.10938-0.54688-0.10938-0.21094 0-0.40234 0.023437-0.57812 0.0625-0.17969 0.042969-0.33984 0.10156-0.48438 0.17188v-0.71875c0.19531-0.050781 0.39844-0.085938 0.60938-0.10938 0.20703-0.03125 0.41406-0.046875 0.625-0.046875 0.53906 0 0.92969 0.10938 1.1719 0.32812 0.23828 0.21094 0.35938 0.55469 0.35938 1.0312z"/>
  </symbol>
  <symbol id="c" overflow="visible">
   <path d="m1.5-3.8438v0.85938h0.98438v0.67188h-0.98438v1.2812c0 0.13672 0.023438 0.23047 0.078125 0.28125 0.0625 0.042969 0.17578 0.0625 0.34375 0.0625h0.48438v0.6875h-0.8125c-0.38672 0-0.65625-0.078125-0.8125-0.23438s-0.23438-0.42188-0.23438-0.79688v-1.2812h-0.46875v-0.67188h0.46875v-0.85938z"/>
  </symbol>
  <symbol id="i" overflow="visible">
   <path d="m2.5-2.5469v-1.6094h0.95312v4.1562h-0.95312v-0.4375c-0.13672 0.17969-0.28125 0.30859-0.4375 0.39062-0.15625 0.082031-0.33984 0.125-0.54688 0.125-0.375 0-0.68359-0.14453-0.92188-0.4375-0.23047-0.28906-0.34375-0.67188-0.34375-1.1406 0-0.45703 0.11328-0.83203 0.34375-1.125 0.23828-0.28906 0.54688-0.4375 0.92188-0.4375 0.19531 0 0.375 0.042969 0.53125 0.125 0.16406 0.085938 0.31641 0.21484 0.45312 0.39062zm-0.64062 1.9375c0.20703 0 0.36328-0.070313 0.46875-0.21875 0.11328-0.15625 0.17188-0.37891 0.17188-0.67188 0-0.28125-0.058594-0.49219-0.17188-0.64062-0.10547-0.15625-0.26172-0.23438-0.46875-0.23438-0.19922 0-0.35547 0.078125-0.46875 0.23438-0.10547 0.14844-0.15625 0.35938-0.15625 0.64062 0 0.29297 0.050781 0.51562 0.15625 0.67188 0.11328 0.14844 0.26953 0.21875 0.46875 0.21875z"/>
  </symbol>
  <symbol id="h" overflow="visible">
   <path d="m2.0469-0.60938c0.20703 0 0.36328-0.070313 0.46875-0.21875 0.11328-0.15625 0.17188-0.37891 0.17188-0.67188 0-0.28125-0.058594-0.49219-0.17188-0.64062-0.10547-0.15625-0.26172-0.23438-0.46875-0.23438-0.19922 0-0.35547 0.078125-0.46875 0.23438-0.10547 0.14844-0.15625 0.35938-0.15625 0.64062 0 0.29297 0.050781 0.51562 0.15625 0.67188 0.11328 0.14844 0.26953 0.21875 0.46875 0.21875zm-0.625-1.9375c0.125-0.17578 0.26562-0.30469 0.42188-0.39062 0.16406-0.082031 0.35156-0.125 0.5625-0.125 0.36328 0 0.66406 0.14844 0.90625 0.4375 0.23828 0.29297 0.35938 0.66797 0.35938 1.125 0 0.46875-0.12109 0.85156-0.35938 1.1406-0.24219 0.29297-0.54297 0.4375-0.90625 0.4375-0.21094 0-0.39844-0.042969-0.5625-0.125-0.15625-0.082031-0.29688-0.21094-0.42188-0.39062v0.4375h-0.96875v-4.1562h0.96875z"/>
  </symbol>
  <symbol id="g" overflow="visible">
   <path d="m0.0625-2.9844h0.95312l0.8125 2.0156 0.6875-2.0156h0.95312l-1.2656 3.2656c-0.125 0.33203-0.27344 0.56641-0.4375 0.70312-0.16797 0.13281-0.39062 0.20312-0.67188 0.20312h-0.54688v-0.64062h0.29688c0.16406 0 0.28516-0.027344 0.35938-0.078125 0.070313-0.054688 0.12891-0.14062 0.17188-0.26562l0.03125-0.09375z"/>
  </symbol>
  <symbol id="f" overflow="visible">
   <path d="m2.9219-0.71875h-1.6094l-0.25 0.71875h-1.0312l1.4688-3.9844h1.2344l1.4688 3.9844h-1.0312zm-1.3594-0.75h1.0938l-0.53125-1.5781z"/>
  </symbol>
  <symbol id="b" overflow="visible">
   <path d="m1.875-2.375c-0.21094 0-0.37109 0.078125-0.48438 0.23438-0.10547 0.14844-0.15625 0.35938-0.15625 0.64062 0 0.29297 0.050781 0.51562 0.15625 0.67188 0.11328 0.14844 0.27344 0.21875 0.48438 0.21875 0.20703 0 0.36719-0.070313 0.48438-0.21875 0.11328-0.15625 0.17188-0.37891 0.17188-0.67188 0-0.28125-0.058594-0.49219-0.17188-0.64062-0.11719-0.15625-0.27734-0.23438-0.48438-0.23438zm0-0.6875c0.51953 0 0.92188 0.14062 1.2031 0.42188 0.28906 0.27344 0.4375 0.65234 0.4375 1.1406 0 0.5-0.14844 0.89062-0.4375 1.1719-0.28125 0.27344-0.68359 0.40625-1.2031 0.40625-0.51172 0-0.91406-0.13281-1.2031-0.40625-0.29297-0.28125-0.4375-0.67188-0.4375-1.1719 0-0.48828 0.14453-0.86719 0.4375-1.1406 0.28906-0.28125 0.69141-0.42188 1.2031-0.42188z"/>
  </symbol>
  <symbol id="e" overflow="visible">
   <path d="m3.2344-2.5c0.11328-0.17578 0.25391-0.3125 0.42188-0.40625 0.16406-0.10156 0.35156-0.15625 0.5625-0.15625 0.33203 0 0.58594 0.10938 0.76562 0.32812 0.1875 0.21094 0.28125 0.51172 0.28125 0.90625v1.8281h-0.96875v-1.5625c0.007813-0.019531 0.015625-0.039062 0.015625-0.0625v-0.10938c0-0.21875-0.03125-0.375-0.09375-0.46875s-0.16406-0.14062-0.29688-0.14062c-0.1875 0-0.33594 0.078125-0.4375 0.23438-0.09375 0.14844-0.14062 0.35938-0.14062 0.64062v1.4688h-0.96875v-1.5625c0-0.33203-0.03125-0.54688-0.09375-0.64062-0.054688-0.09375-0.15234-0.14062-0.29688-0.14062-0.17969 0-0.32031 0.078125-0.42188 0.23438-0.09375 0.14844-0.14062 0.35938-0.14062 0.64062v1.4688h-0.96875v-2.9844h0.96875v0.4375c0.11328-0.17578 0.24219-0.30469 0.39062-0.39062 0.15625-0.082031 0.32812-0.125 0.51562-0.125 0.20703 0 0.39062 0.054688 0.54688 0.15625 0.15625 0.09375 0.27344 0.23047 0.35938 0.40625z"/>
  </symbol>
  <symbol id="r" overflow="visible">
   <path d="m2.4219-4.1562v0.625h-0.51562c-0.13672 0-0.23438 0.027344-0.29688 0.078125-0.054687 0.054687-0.078125 0.13672-0.078125 0.25v0.21875h0.82812v0.67188h-0.82812v2.3125h-0.95312v-2.3125h-0.46875v-0.67188h0.46875v-0.21875c0-0.32031 0.085937-0.5625 0.26562-0.71875 0.1875-0.15625 0.47266-0.23438 0.85938-0.23438z"/>
  </symbol>
  <symbol id="q" overflow="visible">
   <path d="m3.4688-1.8281v1.8281h-0.96875v-1.3906c0-0.25781-0.007812-0.4375-0.015625-0.53125-0.011719-0.10156-0.03125-0.17578-0.0625-0.21875-0.03125-0.0625-0.085937-0.10938-0.15625-0.14062-0.0625-0.039062-0.13281-0.0625-0.20312-0.0625-0.21094 0-0.37109 0.078125-0.48438 0.23438-0.10547 0.15625-0.15625 0.37109-0.15625 0.64062v1.4688h-0.96875v-4.1562h0.96875v1.6094c0.13281-0.17578 0.28516-0.30469 0.45312-0.39062 0.16406-0.082031 0.34375-0.125 0.53125-0.125 0.34375 0 0.60156 0.10938 0.78125 0.32812 0.1875 0.21094 0.28125 0.51172 0.28125 0.90625z"/>
  </symbol>
  <symbol id="p" overflow="visible">
   <path d="m0.5-3.9844h1.1562l1.4375 2.7344v-2.7344h0.98438v3.9844h-1.1562l-1.4375-2.7344v2.7344h-0.98438z"/>
  </symbol>
  <symbol id="o" overflow="visible">
   <path d="m0.42188-1.1719v-1.8125h0.96875v0.29688 0.60938 0.48438c0 0.24219 0.003906 0.41797 0.015625 0.53125 0.007812 0.10547 0.03125 0.17969 0.0625 0.21875 0.039062 0.0625 0.09375 0.11719 0.15625 0.15625 0.0625 0.03125 0.13281 0.046875 0.21875 0.046875 0.19531 0 0.35156-0.078125 0.46875-0.23438 0.11328-0.15625 0.17188-0.36719 0.17188-0.64062v-1.4688h0.95312v2.9844h-0.95312v-0.4375c-0.14844 0.17969-0.30469 0.30859-0.46875 0.39062-0.15625 0.082031-0.33594 0.125-0.53125 0.125-0.34375 0-0.60938-0.10156-0.79688-0.3125-0.17969-0.21875-0.26562-0.53125-0.26562-0.9375z"/>
  </symbol>
  <symbol id="n" overflow="visible">
   <path d="m3.4688-1.8281v1.8281h-0.96875v-1.3906c0-0.25781-0.007812-0.4375-0.015625-0.53125-0.011719-0.10156-0.03125-0.17578-0.0625-0.21875-0.03125-0.0625-0.085937-0.10938-0.15625-0.14062-0.0625-0.039062-0.13281-0.0625-0.20312-0.0625-0.21094 0-0.37109 0.078125-0.48438 0.23438-0.10547 0.15625-0.15625 0.37109-0.15625 0.64062v1.4688h-0.96875v-2.9844h0.96875v0.4375c0.13281-0.17578 0.28516-0.30469 0.45312-0.39062 0.16406-0.082031 0.34375-0.125 0.53125-0.125 0.34375 0 0.60156 0.10938 0.78125 0.32812 0.1875 0.21094 0.28125 0.51172 0.28125 0.90625z"/>
  </symbol>
  <symbol id="m" overflow="visible">
   <path d="m0.5-3.9844h1.7031c0.50781 0 0.89844 0.11719 1.1719 0.34375 0.26953 0.21875 0.40625 0.53906 0.40625 0.95312 0 0.41797-0.13672 0.74219-0.40625 0.96875-0.27344 0.21875-0.66406 0.32812-1.1719 0.32812h-0.67188v1.3906h-1.0312zm1.0312 0.75v1.1094h0.5625c0.19531 0 0.34766-0.046875 0.45312-0.14062 0.11328-0.10156 0.17188-0.24219 0.17188-0.42188 0-0.17578-0.058594-0.3125-0.17188-0.40625-0.10547-0.09375-0.25781-0.14062-0.45312-0.14062z"/>
  </symbol>
  <symbol id="l" overflow="visible">
   <path d="m0.45312-2.9844h0.96875v2.9375c0 0.39453-0.10156 0.69531-0.29688 0.90625-0.1875 0.21875-0.46484 0.32812-0.82812 0.32812h-0.48438v-0.64062h0.17188c0.17578 0 0.29688-0.042969 0.35938-0.125 0.070312-0.074219 0.10938-0.23047 0.10938-0.46875zm0-1.1719h0.96875v0.78125h-0.96875z"/>
  </symbol>
  <symbol id="k" overflow="visible">
   <path d="m2.875-2.8906v0.76562c-0.125-0.082031-0.25781-0.14453-0.39062-0.1875-0.13672-0.039062-0.27344-0.0625-0.40625-0.0625-0.27344 0-0.48047 0.078125-0.625 0.23438-0.14844 0.15625-0.21875 0.37109-0.21875 0.64062 0 0.28125 0.070313 0.5 0.21875 0.65625 0.14453 0.15625 0.35156 0.23438 0.625 0.23438 0.14453 0 0.28516-0.019531 0.42188-0.0625 0.13281-0.039063 0.25781-0.10938 0.375-0.20312v0.78125c-0.14844 0.0625-0.29688 0.10156-0.45312 0.125-0.15625 0.03125-0.3125 0.046875-0.46875 0.046875-0.54297 0-0.96484-0.13281-1.2656-0.40625-0.30469-0.28125-0.45312-0.67188-0.45312-1.1719 0-0.48828 0.14844-0.86719 0.45312-1.1406 0.30078-0.28125 0.72266-0.42188 1.2656-0.42188 0.15625 0 0.3125 0.015625 0.46875 0.046875 0.15625 0.023437 0.30469 0.0625 0.45312 0.125z"/>
  </symbol>
 </defs>
 <g>
  <path d="m514.41 542.75c-36.609 0-82.031-11.539-117.66-32.09-21.297-12.293-37.109-26.84-46.746-42.656-9.6367 15.816-25.453 30.363-46.746 42.656-35.59 20.551-81.059 32.09-117.66 32.09-19.184 0-35.93-3.1719-47.547-9.8438-12.391-7.1523-19.227-18.352-19.227-31.523 0-20.695 16.32-30.109 33.602-40.062 20.113-11.605 45.16-26.055 61.457-63.438h-0.007812c2.418-5.5391 8.8672-8.0703 14.406-5.6523 5.5391 2.4141 8.0703 8.8633 5.6523 14.402-19.184 44.035-48.902 61.172-70.59 73.688-16.406 9.4844-22.652 13.758-22.652 21.121 0 3.6328 0.95312 8.3359 8.2891 12.578 24.25 14 92.137 7.3516 143.34-22.215 40.68-23.57 46.75-48.301 46.75-60.953 0-6.043 4.8984-10.938 10.938-10.938s10.938 4.8945 10.938 10.938c0 12.656 6.0703 37.383 46.746 60.867 34.148 19.688 75.73 29.246 106.84 29.246 15.52 0 28.438-2.375 36.5-7.0312 7.3398-4.2422 8.2891-8.9453 8.2891-12.578 0-7.3594-6.2109-11.637-22.652-21.121-21.688-12.512-51.406-29.652-70.59-73.688h0.003906c-1.1602-2.6602-1.2188-5.6719-0.15625-8.375 1.0586-2.6992 3.1484-4.8711 5.8086-6.0312 5.5391-2.4141 11.988 0.11719 14.406 5.6562 16.297 37.43 41.344 51.875 61.457 63.438 17.281 9.9531 33.602 19.371 33.602 40.062 0 13.125-6.8359 24.367-19.227 31.523-11.609 6.7578-28.363 9.9297-47.547 9.9297z"/>
  <path d="m512.6 459.38c-6.043 0.035156-10.969-4.832-11.004-10.871-0.035156-6.043 4.832-10.969 10.871-11.004 12.352-0.61328 24.531-3.1641 36.094-7.5586 24.062-9.2188 39.879-25.016 47.031-46.934 11.035-33.906-6.0469-64.992-11.551-73.719-8.6406-13.727-16.855-19.457-19.875-20.562-2.6133 2.5586-1.8281 14.656-1.2812 22.848 0.66797 10.148 1.4219 21.668-0.94141 32.125-3.1055 13.727-10.992 23.219-23.473 28.207-12.031 4.8008-26.152 2.1211-38.762-7.3711-19.141-14.414-24.98-41.77-13.586-63.633 16.746-32.133 37.594-72.133 37.594-107.65 0-44.57-18.648-86.254-52.5-117.36h0.003906c-33.059-30.332-76.297-47.164-121.16-47.164-44.867 0-88.105 16.832-121.16 47.164-33.906 31.105-52.5 72.789-52.5 117.36 0 35.516 20.848 75.469 37.594 107.65 11.398 21.875 5.5547 49.219-13.586 63.633-12.609 9.4922-26.742 12.172-38.762 7.3711-12.48-4.9883-20.367-14.48-23.473-28.207-2.3633-10.457-1.6094-21.973-0.94141-32.125 0.54688-8.1914 1.3359-20.289-1.2812-22.848-3.0195 1.0938-11.234 6.8359-19.875 20.562-5.4688 8.75-22.586 39.855-11.551 73.719 7.1406 21.875 22.969 37.711 47.031 46.934h0.003906c11.562 4.3945 23.742 6.9453 36.094 7.5586 6.0391 0.035156 10.906 4.9609 10.871 11.004-0.035156 6.0391-4.9609 10.906-11.004 10.871h-0.10938c-14.719-0.59766-29.246-3.5508-43.027-8.75-30.484-11.473-51.473-32.516-60.715-60.855-14.953-45.938 8.6719-91.098 28.207-110.28 11.035-10.852 21.59-14.953 30.527-11.855 19.152 6.6172 17.742 28.098 16.602 45.359-2.0547 31.172 2.668 35.371 10.695 38.586 4.7578 1.8906 11.133 0.25 17.5-4.5391 10.695-8.0508 13.859-23.547 7.3398-36.094-17.867-34.227-40.082-76.883-40.082-117.73 0-50.773 21.164-98.164 59.586-133.44 37.098-34.039 85.617-52.926 135.96-52.926s98.867 18.887 135.96 52.926c38.422 35.305 59.586 82.699 59.586 133.44 0 40.875-22.215 83.508-40.062 117.75-6.5625 12.5-3.3594 28 7.3398 36.094 6.3555 4.7891 12.73 6.4414 17.5 4.5391 12.031-4.8125 12.031-17.797 10.695-38.586-1.0938-17.258-2.5469-38.742 16.602-45.359 8.9375-3.0938 19.492 1.0078 30.527 11.855 19.535 19.184 43.16 64.391 28.207 110.28-9.25 28.297-30.242 49.34-60.734 60.836-13.75 5.1875-28.246 8.1406-42.93 8.75z"/>
  <path d="m175.91 553.85c-19.492 0-30-14.109-33.141-22.453l20.477-7.6562v-0.15234c2.1289 5.1367 7.1602 8.4727 12.719 8.4336 10.238 0 15.312-6.1367 15.98-6.9766v-0.003906c1.5977-2.6602 4.2969-4.4648 7.3633-4.9258 3.0703-0.46094 6.1797 0.47656 8.4844 2.5547 0.90625 0.65625 8.543 5.7852 21.133 3.8516 12.895-1.9922 19.141-12.609 19.207-12.719v-0.003907c1.4883-2.793 4.125-4.793 7.2188-5.4688 3.0352-0.67188 6.2109 0.027344 8.6836 1.9141 1.3672 0.88672 10.477 6.2461 22.617-0.49219 13.125-7.3047 13.879-17.293 13.879-17.391h0.003906c0.003906-3.543 1.7227-6.8672 4.6133-8.9141 2.8477-2.0039 6.4961-2.4883 9.7695-1.3008 6.625 1.6211 13.633 0.26172 19.172-3.7188 5.4688-3.8945 5.6016-21.438 3.5977-32.07-0.95312-5.8516 2.9258-11.395 8.75-12.504 5.8242-1.1094 11.469 2.6211 12.73 8.4141 1.2695 6.6289 6.6406 40.402-12.371 53.965h0.003906c-7.9219 5.6328-17.43 8.5938-27.148 8.4531-0.24219 0.57812-0.49219 1.1797-0.77734 1.793-2.9414 6.3672-9.0664 15.422-21.602 22.391-14.82 8.2344-27.914 6.6406-36.301 3.8398-7.5625 8.2383-17.68 13.688-28.723 15.465-9.9414 1.625-20.137 0.41797-29.422-3.4883-7.6836 5.9961-17.168 9.2266-26.918 9.1641z"/>
  <path d="m149.55 463.14c-4.1562 0.011719-8.2852-0.70703-12.195-2.1211-8.0469-2.7031-14.359-9.0273-17.039-17.086-9.0039-0.24219-17.535-4.0625-23.711-10.617-7.4883-7.6367-11.129-18.242-9.9102-28.867-5.7422-3.8281-12.578-10.281-15.215-20.312-2.9102-11.004 1.0938-20.781 5.0742-27.125-3.3906-6.3555-6.5625-15.969-3.2812-26.336s10.652-16.93 16.012-20.562c0.80859-5.6875 2.832-14.023 7.832-21.023 8.2891-11.605 22.062-15.52 23.613-15.938v0.003906c5.8359-1.5625 11.836 1.8984 13.398 7.7344 1.5664 5.8359-1.8945 11.832-7.7305 13.398-2.1875 0.60156-8.3359 3.1289-11.484 7.5234-3.3906 4.7578-4.2656 12.492-4.3086 15.07v0.003906c-0.019531 4.2969-2.6016 8.1719-6.5625 9.8438 0 0-7.7891 3.6953-9.9766 10.531-1.5078 4.7891 2.6133 11.242 4.168 13.125 3.7617 4.2539 3.5352 10.711-0.51562 14.688-1.707 1.8164-6.4648 8.3359-5.0977 13.484 1.6953 6.4648 10.105 9.7773 10.184 9.8438v0.003906c2.8984 0.94922 5.2578 3.0859 6.4961 5.8711 1.2148 2.7422 1.2148 5.8672 0 8.6094-0.44922 1.2148-3.0312 9.0547 2.9414 15.18h0.003907c3.2969 3.668 8.4883 4.9648 13.125 3.2812 3.6641-1.8594 8.0742-1.4414 11.324 1.0781s4.7578 6.6875 3.8672 10.703c-0.29688 2.582 0.23047 5.918 4.2773 7.3945 7.9727 2.8984 17.5-3.2812 17.652-3.3672v-0.003906c2.3711-1.8594 5.4102-2.6562 8.3906-2.2031 2.9805 0.45703 5.6406 2.1211 7.3555 4.6016s2.3242 5.5625 1.6914 8.5078c-0.63281 2.9492-2.4531 5.5039-5.0352 7.0664-1.4648 0.97266-12.055 8.0156-25.344 8.0156z"/>
  <path d="m524.09 553.85c-9.75 0.0625-19.234-3.168-26.918-9.1641-9.2812 3.8555-19.457 5.0195-29.367 3.3672-11.035-1.7578-21.152-7.1836-28.723-15.398-8.3906 2.8008-21.48 4.375-36.301-3.8398-12.535-6.9883-18.66-16.043-21.602-22.41-0.28516-0.61328-0.53516-1.2148-0.77734-1.793-9.7109 0.13672-19.211-2.8242-27.125-8.457-19.008-13.562-13.641-47.336-12.371-53.965 0.5-2.8906 2.1406-5.4609 4.5547-7.1328 2.4141-1.6719 5.3984-2.3008 8.2812-1.75 2.8828 0.55469 5.4219 2.2422 7.0469 4.6836 1.6289 2.4453 2.2031 5.4414 1.5977 8.3125-2 10.609-1.8711 28.152 3.5977 32.047h0.003907c5.5352 3.9883 12.543 5.3477 19.172 3.7188 3.3164-1.3047 7.0664-0.85547 9.9844 1.1914 2.8672 2.0391 4.5156 5.3867 4.375 8.9023 0.13281 1.2695 1.4531 10.598 13.879 17.5 12.828 7.1211 22.465 0.60156 22.555 0.53516v0.003906c2.5352-1.875 5.7578-2.5664 8.8398-1.8945 3.0352 0.68359 5.6289 2.6523 7.1094 5.3945 0.54688 0.90625 6.7695 10.852 19.227 12.766 12.457 1.9141 20.223-3.1953 21.133-3.8516 2.3047-2.0781 5.418-3.0117 8.4844-2.5508 3.0703 0.46094 5.7695 2.2734 7.3633 4.9336 0.64453 0.84375 5.7422 6.9766 15.98 6.9766 5.5586 0.042969 10.59-3.293 12.719-8.4297l-0.054688 0.15234 20.477 7.6562c-3.1406 8.3867-13.641 22.496-33.141 22.496z"/>
  <path d="m550.45 463.14c-13.289 0-23.875-7-25.344-8.0156-4.9648-3.4453-6.1992-10.262-2.7578-15.227 3.4453-4.9648 10.262-6.1992 15.227-2.7539 0 0 9.6133 6.2227 17.586 3.2812 3.0586-1.0156 4.8906-4.1328 4.2891-7.2969-0.75-4.0391 0.82422-8.1562 4.0781-10.664 3.1992-2.4336 7.4922-2.8555 11.102-1.0938 4.6367 1.6836 9.8281 0.38672 13.125-3.2812 6.332-6.4844 3.0078-15.039 2.9766-15.125-1.2266-2.7891-1.2266-5.9648 0-8.75 1.2305-2.7578 3.5664-4.8633 6.4297-5.8086 0 0 8.4766-3.3359 10.184-9.8438 1.4102-5.3359-3.75-12.098-5.0977-13.484v-0.003907c-3.9492-4.0547-4.1484-10.457-0.45703-14.754 1.5078-1.8164 5.6211-8.2695 4.1133-13.059-2.1875-6.8359-9.9531-10.523-10.031-10.555-3.9531-1.6602-6.5039-5.5547-6.4414-9.8438 0-2.5391-0.91797-10.27-4.3086-15.027-3.2812-4.5938-9.8438-7.0859-11.418-7.5156h-0.003906c-5.7305-1.6328-9.1016-7.5547-7.5742-13.32 1.5234-5.7617 7.3867-9.2422 13.176-7.8203 1.5547 0.41406 15.312 4.375 23.613 15.938 5 7 7.0234 15.312 7.832 21.023 5.3594 3.6328 12.754 10.25 16.012 20.562 3.2578 10.312 0.054687 19.984-3.3359 26.336 3.9375 6.3125 7.9844 16.121 5.0742 27.125-2.6367 10.031-9.4727 16.484-15.215 20.312l0.003906-0.003906c1.2188 10.625-2.4219 21.23-9.9102 28.863-6.1758 6.543-14.699 10.355-23.691 10.598-2.6875 8.0625-9.0078 14.391-17.062 17.086-3.9023 1.4141-8.0234 2.1328-12.172 2.1211z"/>
  <path d="m400.37 281.61h-99.336c-6.0391 0-10.938-4.8984-10.938-10.938 0-6.043 4.8984-10.938 10.938-10.938h99.336c6.0391 0 10.938 4.8945 10.938 10.938 0 6.0391-4.8984 10.938-10.938 10.938z"/>
  <path d="m308.9 203.72h-44.406c-6.043 0-10.938-4.8984-10.938-10.938 0-6.043 4.8945-10.938 10.938-10.938h44.406c6.0391 0 10.938 4.8945 10.938 10.938 0 6.0391-4.8984 10.938-10.938 10.938z"/>
  <path d="m308.9 203.72h-44.406c-6.043 0-10.938-4.8984-10.938-10.938 0-6.043 4.8945-10.938 10.938-10.938h44.406c6.0391 0 10.938 4.8945 10.938 10.938 0 6.0391-4.8984 10.938-10.938 10.938z"/>
  <path d="m275.47 203.78c6.0469-0.03125 10.938-4.9453 10.938-10.992h-21.918c-0.015626 2.918 1.1367 5.7188 3.1992 7.7852 2.0625 2.0625 4.8633 3.2188 7.7812 3.207z"/>
  <path d="m275.47 214.71c-5.8047-0.019532-11.367-2.3398-15.465-6.4492-4.1016-4.1094-6.4062-9.6758-6.4102-15.48 0-6.043 4.8945-10.938 10.938-10.938h21.973c2.9023 0 5.6836 1.1523 7.7344 3.2031 2.0508 2.0508 3.2031 4.832 3.2031 7.7344-0.003906 5.8203-2.3242 11.402-6.4453 15.516s-9.707 6.418-15.527 6.4141z"/>
  <path d="m438.23 203.72h-44.406c-6.043 0-10.938-4.8984-10.938-10.938 0-6.043 4.8945-10.938 10.938-10.938h44.406c6.0391 0 10.938 4.8945 10.938 10.938 0 6.0391-4.8984 10.938-10.938 10.938z"/>
  <path d="m438.23 203.72h-44.406c-6.043 0-10.938-4.8984-10.938-10.938 0-6.043 4.8945-10.938 10.938-10.938h44.406c6.0391 0 10.938 4.8945 10.938 10.938 0 6.0391-4.8984 10.938-10.938 10.938z"/>
  <path d="m404.82 203.78c2.9102 0 5.6992-1.1602 7.75-3.2227 2.0547-2.0625 3.1992-4.8594 3.1875-7.7695h-21.93c0 2.9141 1.1562 5.7109 3.2188 7.7734 2.0625 2.0586 4.8555 3.2188 7.7734 3.2188z"/>
  <path d="m404.82 214.71c-5.8164-0.007813-11.391-2.3203-15.5-6.4297-4.1133-4.1133-6.4258-9.6875-6.4297-15.5 0-6.043 4.8945-10.938 10.938-10.938h21.973c2.8984 0 5.6836 1.1523 7.7344 3.2031 2.0508 2.0508 3.2031 4.832 3.2031 7.7344-0.007812 5.8125-2.3164 11.383-6.4258 15.496-4.1094 4.1094-9.6797 6.4258-15.492 6.4336z"/>
  <use x="70" y="576.40625" xlink:href="#s"/>
  <use x="74.011719" y="576.40625" xlink:href="#d"/>
  <use x="76.710938" y="576.40625" xlink:href="#a"/>
  <use x="80.417969" y="576.40625" xlink:href="#j"/>
  <use x="84.109375" y="576.40625" xlink:href="#c"/>
  <use x="86.722656" y="576.40625" xlink:href="#a"/>
  <use x="90.433594" y="576.40625" xlink:href="#i"/>
  <use x="96.25" y="576.40625" xlink:href="#h"/>
  <use x="100.167969" y="576.40625" xlink:href="#g"/>
  <use x="105.636719" y="576.40625" xlink:href="#f"/>
  <use x="109.867188" y="576.40625" xlink:href="#b"/>
  <use x="113.625" y="576.40625" xlink:href="#e"/>
  <use x="119.324219" y="576.40625" xlink:href="#f"/>
  <use x="123.554688" y="576.40625" xlink:href="#e"/>
  <use x="70" y="581.875" xlink:href="#r"/>
  <use x="72.378906" y="581.875" xlink:href="#d"/>
  <use x="75.078125" y="581.875" xlink:href="#b"/>
  <use x="78.832031" y="581.875" xlink:href="#e"/>
  <use x="86.4375" y="581.875" xlink:href="#c"/>
  <use x="89.050781" y="581.875" xlink:href="#q"/>
  <use x="92.941406" y="581.875" xlink:href="#a"/>
  <use x="98.554688" y="581.875" xlink:href="#p"/>
  <use x="103.132812" y="581.875" xlink:href="#b"/>
  <use x="106.890625" y="581.875" xlink:href="#o"/>
  <use x="110.785156" y="581.875" xlink:href="#n"/>
  <use x="116.582031" y="581.875" xlink:href="#m"/>
  <use x="120.589844" y="581.875" xlink:href="#d"/>
  <use x="123.285156" y="581.875" xlink:href="#b"/>
  <use x="127.042969" y="581.875" xlink:href="#l"/>
  <use x="128.917969" y="581.875" xlink:href="#a"/>
  <use x="132.625" y="581.875" xlink:href="#k"/>
  <use x="135.867188" y="581.875" xlink:href="#c"/>
 </g>
</svg>
