<?xml version="1.0" encoding="UTF-8"?>
<svg width="700pt" height="700pt" version="1.1" viewBox="0 0 700 700" xmlns="http://www.w3.org/2000/svg" xmlns:xlink="http://www.w3.org/1999/xlink">
 <defs>
  <symbol id="s" overflow="visible">
   <path d="m3.6562-0.21875c-0.1875 0.09375-0.38672 0.16797-0.59375 0.21875-0.19922 0.050781-0.40625 0.078125-0.625 0.078125-0.66797 0-1.1992-0.17969-1.5938-0.54688-0.38672-0.375-0.57812-0.87891-0.57812-1.5156 0-0.64453 0.19141-1.1484 0.57812-1.5156 0.39453-0.375 0.92578-0.5625 1.5938-0.5625 0.21875 0 0.42578 0.027344 0.625 0.078125 0.20703 0.054687 0.40625 0.125 0.59375 0.21875v0.82812c-0.1875-0.125-0.375-0.21875-0.5625-0.28125-0.17969-0.0625-0.37109-0.09375-0.57812-0.09375-0.36719 0-0.65625 0.12109-0.875 0.35938-0.21094 0.23047-0.3125 0.55469-0.3125 0.96875 0 0.40625 0.10156 0.73047 0.3125 0.96875 0.21875 0.23047 0.50781 0.34375 0.875 0.34375 0.20703 0 0.39844-0.023437 0.57812-0.078125 0.1875-0.0625 0.375-0.16016 0.5625-0.29688z"/>
  </symbol>
  <symbol id="d" overflow="visible">
   <path d="m2.6875-2.1719c-0.085938-0.039063-0.16797-0.070313-0.25-0.09375-0.085938-0.019531-0.16797-0.03125-0.25-0.03125-0.25 0-0.44531 0.085937-0.57812 0.25-0.125 0.15625-0.1875 0.38281-0.1875 0.67188v1.375h-0.96875v-2.9844h0.96875v0.48438c0.11328-0.19531 0.25-0.33594 0.40625-0.42188 0.16406-0.09375 0.35938-0.14062 0.57812-0.14062h0.10938c0.039063 0 0.09375 0.007812 0.15625 0.015625z"/>
  </symbol>
  <symbol id="a" overflow="visible">
   <path d="m3.4375-1.5v0.26562h-2.2344c0.03125 0.23047 0.11328 0.40234 0.25 0.51562 0.13281 0.10547 0.32812 0.15625 0.57812 0.15625 0.20703 0 0.41406-0.023438 0.625-0.078125 0.20703-0.0625 0.42188-0.15625 0.64062-0.28125v0.73438c-0.21875 0.09375-0.44531 0.16406-0.67188 0.20312-0.23047 0.039062-0.45312 0.0625-0.67188 0.0625-0.54297 0-0.96484-0.13281-1.2656-0.40625-0.30469-0.28125-0.45312-0.67188-0.45312-1.1719 0-0.47656 0.14453-0.85938 0.4375-1.1406 0.30078-0.28125 0.70703-0.42188 1.2188-0.42188 0.46875 0 0.84375 0.14062 1.125 0.42188s0.42188 0.66406 0.42188 1.1406zm-0.96875-0.32812c0-0.17578-0.058594-0.31641-0.17188-0.42188-0.10547-0.11328-0.24219-0.17188-0.40625-0.17188-0.1875 0-0.33984 0.054687-0.45312 0.15625-0.11719 0.10547-0.1875 0.25-0.21875 0.4375z"/>
  </symbol>
  <symbol id="j" overflow="visible">
   <path d="m1.7969-1.3438c-0.19922 0-0.35156 0.039062-0.45312 0.10938-0.09375 0.0625-0.14062 0.16406-0.14062 0.29688 0 0.11719 0.035156 0.21094 0.10938 0.28125 0.082031 0.0625 0.19531 0.09375 0.34375 0.09375 0.17578 0 0.32812-0.0625 0.45312-0.1875s0.1875-0.28516 0.1875-0.48438v-0.10938zm1.4688-0.35938v1.7031h-0.96875v-0.4375c-0.125 0.17969-0.27344 0.30859-0.4375 0.39062-0.15625 0.082031-0.35156 0.125-0.57812 0.125-0.3125 0-0.57031-0.085938-0.76562-0.26562-0.1875-0.1875-0.28125-0.42188-0.28125-0.70312 0-0.35156 0.11719-0.61328 0.35938-0.78125 0.23828-0.16406 0.61719-0.25 1.1406-0.25h0.5625v-0.0625c0-0.15625-0.0625-0.26562-0.1875-0.32812-0.11719-0.070312-0.29688-0.10938-0.54688-0.10938-0.21094 0-0.40234 0.023437-0.57812 0.0625-0.17969 0.042969-0.33984 0.10156-0.48438 0.17188v-0.71875c0.19531-0.050781 0.39844-0.085938 0.60938-0.10938 0.20703-0.03125 0.41406-0.046875 0.625-0.046875 0.53906 0 0.92969 0.10938 1.1719 0.32812 0.23828 0.21094 0.35938 0.55469 0.35938 1.0312z"/>
  </symbol>
  <symbol id="c" overflow="visible">
   <path d="m1.5-3.8438v0.85938h0.98438v0.67188h-0.98438v1.2812c0 0.13672 0.023438 0.23047 0.078125 0.28125 0.0625 0.042969 0.17578 0.0625 0.34375 0.0625h0.48438v0.6875h-0.8125c-0.38672 0-0.65625-0.078125-0.8125-0.23438s-0.23438-0.42188-0.23438-0.79688v-1.2812h-0.46875v-0.67188h0.46875v-0.85938z"/>
  </symbol>
  <symbol id="i" overflow="visible">
   <path d="m2.5-2.5469v-1.6094h0.95312v4.1562h-0.95312v-0.4375c-0.13672 0.17969-0.28125 0.30859-0.4375 0.39062-0.15625 0.082031-0.33984 0.125-0.54688 0.125-0.375 0-0.68359-0.14453-0.92188-0.4375-0.23047-0.28906-0.34375-0.67188-0.34375-1.1406 0-0.45703 0.11328-0.83203 0.34375-1.125 0.23828-0.28906 0.54688-0.4375 0.92188-0.4375 0.19531 0 0.375 0.042969 0.53125 0.125 0.16406 0.085938 0.31641 0.21484 0.45312 0.39062zm-0.64062 1.9375c0.20703 0 0.36328-0.070313 0.46875-0.21875 0.11328-0.15625 0.17188-0.37891 0.17188-0.67188 0-0.28125-0.058594-0.49219-0.17188-0.64062-0.10547-0.15625-0.26172-0.23438-0.46875-0.23438-0.19922 0-0.35547 0.078125-0.46875 0.23438-0.10547 0.14844-0.15625 0.35938-0.15625 0.64062 0 0.29297 0.050781 0.51562 0.15625 0.67188 0.11328 0.14844 0.26953 0.21875 0.46875 0.21875z"/>
  </symbol>
  <symbol id="h" overflow="visible">
   <path d="m2.0469-0.60938c0.20703 0 0.36328-0.070313 0.46875-0.21875 0.11328-0.15625 0.17188-0.37891 0.17188-0.67188 0-0.28125-0.058594-0.49219-0.17188-0.64062-0.10547-0.15625-0.26172-0.23438-0.46875-0.23438-0.19922 0-0.35547 0.078125-0.46875 0.23438-0.10547 0.14844-0.15625 0.35938-0.15625 0.64062 0 0.29297 0.050781 0.51562 0.15625 0.67188 0.11328 0.14844 0.26953 0.21875 0.46875 0.21875zm-0.625-1.9375c0.125-0.17578 0.26562-0.30469 0.42188-0.39062 0.16406-0.082031 0.35156-0.125 0.5625-0.125 0.36328 0 0.66406 0.14844 0.90625 0.4375 0.23828 0.29297 0.35938 0.66797 0.35938 1.125 0 0.46875-0.12109 0.85156-0.35938 1.1406-0.24219 0.29297-0.54297 0.4375-0.90625 0.4375-0.21094 0-0.39844-0.042969-0.5625-0.125-0.15625-0.082031-0.29688-0.21094-0.42188-0.39062v0.4375h-0.96875v-4.1562h0.96875z"/>
  </symbol>
  <symbol id="g" overflow="visible">
   <path d="m0.0625-2.9844h0.95312l0.8125 2.0156 0.6875-2.0156h0.95312l-1.2656 3.2656c-0.125 0.33203-0.27344 0.56641-0.4375 0.70312-0.16797 0.13281-0.39062 0.20312-0.67188 0.20312h-0.54688v-0.64062h0.29688c0.16406 0 0.28516-0.027344 0.35938-0.078125 0.070313-0.054688 0.12891-0.14062 0.17188-0.26562l0.03125-0.09375z"/>
  </symbol>
  <symbol id="f" overflow="visible">
   <path d="m2.9219-0.71875h-1.6094l-0.25 0.71875h-1.0312l1.4688-3.9844h1.2344l1.4688 3.9844h-1.0312zm-1.3594-0.75h1.0938l-0.53125-1.5781z"/>
  </symbol>
  <symbol id="b" overflow="visible">
   <path d="m1.875-2.375c-0.21094 0-0.37109 0.078125-0.48438 0.23438-0.10547 0.14844-0.15625 0.35938-0.15625 0.64062 0 0.29297 0.050781 0.51562 0.15625 0.67188 0.11328 0.14844 0.27344 0.21875 0.48438 0.21875 0.20703 0 0.36719-0.070313 0.48438-0.21875 0.11328-0.15625 0.17188-0.37891 0.17188-0.67188 0-0.28125-0.058594-0.49219-0.17188-0.64062-0.11719-0.15625-0.27734-0.23438-0.48438-0.23438zm0-0.6875c0.51953 0 0.92188 0.14062 1.2031 0.42188 0.28906 0.27344 0.4375 0.65234 0.4375 1.1406 0 0.5-0.14844 0.89062-0.4375 1.1719-0.28125 0.27344-0.68359 0.40625-1.2031 0.40625-0.51172 0-0.91406-0.13281-1.2031-0.40625-0.29297-0.28125-0.4375-0.67188-0.4375-1.1719 0-0.48828 0.14453-0.86719 0.4375-1.1406 0.28906-0.28125 0.69141-0.42188 1.2031-0.42188z"/>
  </symbol>
  <symbol id="e" overflow="visible">
   <path d="m3.2344-2.5c0.11328-0.17578 0.25391-0.3125 0.42188-0.40625 0.16406-0.10156 0.35156-0.15625 0.5625-0.15625 0.33203 0 0.58594 0.10938 0.76562 0.32812 0.1875 0.21094 0.28125 0.51172 0.28125 0.90625v1.8281h-0.96875v-1.5625c0.007813-0.019531 0.015625-0.039062 0.015625-0.0625v-0.10938c0-0.21875-0.03125-0.375-0.09375-0.46875s-0.16406-0.14062-0.29688-0.14062c-0.1875 0-0.33594 0.078125-0.4375 0.23438-0.09375 0.14844-0.14062 0.35938-0.14062 0.64062v1.4688h-0.96875v-1.5625c0-0.33203-0.03125-0.54688-0.09375-0.64062-0.054688-0.09375-0.15234-0.14062-0.29688-0.14062-0.17969 0-0.32031 0.078125-0.42188 0.23438-0.09375 0.14844-0.14062 0.35938-0.14062 0.64062v1.4688h-0.96875v-2.9844h0.96875v0.4375c0.11328-0.17578 0.24219-0.30469 0.39062-0.39062 0.15625-0.082031 0.32812-0.125 0.51562-0.125 0.20703 0 0.39062 0.054688 0.54688 0.15625 0.15625 0.09375 0.27344 0.23047 0.35938 0.40625z"/>
  </symbol>
  <symbol id="r" overflow="visible">
   <path d="m2.4219-4.1562v0.625h-0.51562c-0.13672 0-0.23438 0.027344-0.29688 0.078125-0.054687 0.054687-0.078125 0.13672-0.078125 0.25v0.21875h0.82812v0.67188h-0.82812v2.3125h-0.95312v-2.3125h-0.46875v-0.67188h0.46875v-0.21875c0-0.32031 0.085937-0.5625 0.26562-0.71875 0.1875-0.15625 0.47266-0.23438 0.85938-0.23438z"/>
  </symbol>
  <symbol id="q" overflow="visible">
   <path d="m3.4688-1.8281v1.8281h-0.96875v-1.3906c0-0.25781-0.007812-0.4375-0.015625-0.53125-0.011719-0.10156-0.03125-0.17578-0.0625-0.21875-0.03125-0.0625-0.085937-0.10938-0.15625-0.14062-0.0625-0.039062-0.13281-0.0625-0.20312-0.0625-0.21094 0-0.37109 0.078125-0.48438 0.23438-0.10547 0.15625-0.15625 0.37109-0.15625 0.64062v1.4688h-0.96875v-4.1562h0.96875v1.6094c0.13281-0.17578 0.28516-0.30469 0.45312-0.39062 0.16406-0.082031 0.34375-0.125 0.53125-0.125 0.34375 0 0.60156 0.10938 0.78125 0.32812 0.1875 0.21094 0.28125 0.51172 0.28125 0.90625z"/>
  </symbol>
  <symbol id="p" overflow="visible">
   <path d="m0.5-3.9844h1.1562l1.4375 2.7344v-2.7344h0.98438v3.9844h-1.1562l-1.4375-2.7344v2.7344h-0.98438z"/>
  </symbol>
  <symbol id="o" overflow="visible">
   <path d="m0.42188-1.1719v-1.8125h0.96875v0.29688 0.60938 0.48438c0 0.24219 0.003906 0.41797 0.015625 0.53125 0.007812 0.10547 0.03125 0.17969 0.0625 0.21875 0.039062 0.0625 0.09375 0.11719 0.15625 0.15625 0.0625 0.03125 0.13281 0.046875 0.21875 0.046875 0.19531 0 0.35156-0.078125 0.46875-0.23438 0.11328-0.15625 0.17188-0.36719 0.17188-0.64062v-1.4688h0.95312v2.9844h-0.95312v-0.4375c-0.14844 0.17969-0.30469 0.30859-0.46875 0.39062-0.15625 0.082031-0.33594 0.125-0.53125 0.125-0.34375 0-0.60938-0.10156-0.79688-0.3125-0.17969-0.21875-0.26562-0.53125-0.26562-0.9375z"/>
  </symbol>
  <symbol id="n" overflow="visible">
   <path d="m3.4688-1.8281v1.8281h-0.96875v-1.3906c0-0.25781-0.007812-0.4375-0.015625-0.53125-0.011719-0.10156-0.03125-0.17578-0.0625-0.21875-0.03125-0.0625-0.085937-0.10938-0.15625-0.14062-0.0625-0.039062-0.13281-0.0625-0.20312-0.0625-0.21094 0-0.37109 0.078125-0.48438 0.23438-0.10547 0.15625-0.15625 0.37109-0.15625 0.64062v1.4688h-0.96875v-2.9844h0.96875v0.4375c0.13281-0.17578 0.28516-0.30469 0.45312-0.39062 0.16406-0.082031 0.34375-0.125 0.53125-0.125 0.34375 0 0.60156 0.10938 0.78125 0.32812 0.1875 0.21094 0.28125 0.51172 0.28125 0.90625z"/>
  </symbol>
  <symbol id="m" overflow="visible">
   <path d="m0.5-3.9844h1.7031c0.50781 0 0.89844 0.11719 1.1719 0.34375 0.26953 0.21875 0.40625 0.53906 0.40625 0.95312 0 0.41797-0.13672 0.74219-0.40625 0.96875-0.27344 0.21875-0.66406 0.32812-1.1719 0.32812h-0.67188v1.3906h-1.0312zm1.0312 0.75v1.1094h0.5625c0.19531 0 0.34766-0.046875 0.45312-0.14062 0.11328-0.10156 0.17188-0.24219 0.17188-0.42188 0-0.17578-0.058594-0.3125-0.17188-0.40625-0.10547-0.09375-0.25781-0.14062-0.45312-0.14062z"/>
  </symbol>
  <symbol id="l" overflow="visible">
   <path d="m0.45312-2.9844h0.96875v2.9375c0 0.39453-0.10156 0.69531-0.29688 0.90625-0.1875 0.21875-0.46484 0.32812-0.82812 0.32812h-0.48438v-0.64062h0.17188c0.17578 0 0.29688-0.042969 0.35938-0.125 0.070312-0.074219 0.10938-0.23047 0.10938-0.46875zm0-1.1719h0.96875v0.78125h-0.96875z"/>
  </symbol>
  <symbol id="k" overflow="visible">
   <path d="m2.875-2.8906v0.76562c-0.125-0.082031-0.25781-0.14453-0.39062-0.1875-0.13672-0.039062-0.27344-0.0625-0.40625-0.0625-0.27344 0-0.48047 0.078125-0.625 0.23438-0.14844 0.15625-0.21875 0.37109-0.21875 0.64062 0 0.28125 0.070313 0.5 0.21875 0.65625 0.14453 0.15625 0.35156 0.23438 0.625 0.23438 0.14453 0 0.28516-0.019531 0.42188-0.0625 0.13281-0.039063 0.25781-0.10938 0.375-0.20312v0.78125c-0.14844 0.0625-0.29688 0.10156-0.45312 0.125-0.15625 0.03125-0.3125 0.046875-0.46875 0.046875-0.54297 0-0.96484-0.13281-1.2656-0.40625-0.30469-0.28125-0.45312-0.67188-0.45312-1.1719 0-0.48828 0.14844-0.86719 0.45312-1.1406 0.30078-0.28125 0.72266-0.42188 1.2656-0.42188 0.15625 0 0.3125 0.015625 0.46875 0.046875 0.15625 0.023437 0.30469 0.0625 0.45312 0.125z"/>
  </symbol>
 </defs>
 <g>
  <path d="m623.44 357.01c3.3789-6.3555 6.6172-15.969 3.3359-26.336-3.2812-10.367-10.652-16.93-16.012-20.562-0.80859-5.6875-2.832-14.023-7.832-21.023-6.5625-9.1641-16.527-13.539-21.188-15.172-8.75-6.6172-16.965-8.8047-24.16-6.3125-19.152 6.6172-17.742 28.098-16.602 45.359 1.3672 20.781 1.3359 33.773-10.695 38.586-4.7695 1.9023-11.133 0.25-17.5-4.5391-10.695-8.0508-13.859-23.547-7.3398-36.094 17.891-34.199 40.105-76.855 40.105-117.71 0-50.773-21.164-98.164-59.586-133.44-37.098-34.039-85.617-52.926-135.96-52.926s-98.867 18.887-135.96 52.926c-38.422 35.305-59.586 82.699-59.586 133.44 0 40.875 22.215 83.496 40.062 117.75 6.5625 12.5 3.3594 28-7.3516 36.094-6.3438 4.7891-12.719 6.4297-17.5 4.5391-8.0273-3.2148-12.754-7.4141-10.695-38.586 1.0938-17.258 2.5469-38.742-16.602-45.359-7.1953-2.4922-15.453-0.30469-24.16 6.3125-4.6602 1.6289-14.633 6.0039-21.188 15.172-5 7-7.0234 15.312-7.832 21.023-5.3594 3.6328-12.754 10.25-16.012 20.562s0 19.984 3.3359 26.336c-3.9375 6.3125-7.9844 16.121-5.0742 27.125 2.6484 10.031 9.4727 16.484 15.215 20.312v-0.003906c-1.2227 10.621 2.4219 21.227 9.9062 28.863 6.1953 6.5508 14.746 10.355 23.758 10.574 2.6875 8.0625 9.0078 14.391 17.062 17.086 3.8047 1.375 7.8203 2.0898 11.867 2.1094-16.047 9.3281-30.406 18.812-30.406 38.227 0 14.121 7.7539 25.824 21.875 32.934 1.4531 0.73438 2.9648 1.4102 4.5391 2.0547v0.003906c3.125 5.3633 7.6133 9.8086 13.008 12.883 5.3945 3.0742 11.508 4.6641 17.715 4.6172 9.7266 0.046875 19.184-3.1758 26.852-9.1562 9.2812 3.8555 19.457 5.0195 29.367 3.3672 11.031-1.7578 21.152-7.1836 28.723-15.398 8.3984 2.8008 21.48 4.375 36.301-3.8398 12.535-6.9688 18.66-16.023 21.602-22.391 0.28516-0.61328 0.53516-1.2148 0.77734-1.793 9.7109 0.13281 19.215-2.8359 27.125-8.4766 1.1641-0.82422 2.2617-1.7422 3.2812-2.7422 1.0195 1 2.1172 1.918 3.2812 2.7422 7.918 5.6367 17.43 8.6016 27.148 8.457 0.24219 0.57812 0.49219 1.1797 0.77734 1.793 2.9414 6.3672 9.0664 15.422 21.602 22.391 14.82 8.2344 27.902 6.6406 36.301 3.8398v-0.003907c7.5625 8.2383 17.68 13.688 28.719 15.469 9.9102 1.6328 20.078 0.44922 29.348-3.4141 7.6914 5.9805 17.172 9.1953 26.918 9.1211 6.207 0.050781 12.32-1.543 17.715-4.6172 5.3945-3.0703 9.8828-7.5156 13.008-12.883 1.5742-0.64453 3.0859-1.3242 4.5391-2.0547 14.078-7.1094 21.875-18.812 21.875-32.934 0-19.414-14.359-28.898-30.406-38.227 4.0469-0.023438 8.0586-0.73438 11.867-2.1094 8.0234-2.707 14.316-9.0195 16.996-17.055 9.0039-0.24219 17.535-4.0625 23.711-10.617 7.4883-7.6367 11.129-18.242 9.9102-28.867 5.7422-3.8281 12.566-10.281 15.215-20.312 2.9297-11-1.1172-20.812-5.0859-27.121zm-64.16 144.38c0 3.9258-1.0938 9.0117-9.8438 13.41-8.0156 4.0469-20.047 6.1914-34.77 6.1914-3.9805 0-8.082-0.16406-12.273-0.46875v-0.003906c-0.54688-0.17969-1.1133-0.31641-1.6836-0.40625-1.0156-0.15625-2.0469-0.15625-3.0625 0-17.23-1.7734-34.211-5.4414-50.641-10.938-0.72656-0.33203-1.4844-0.59766-2.2617-0.78516h-0.15234c-17.578-6.0469-34.32-14.078-48.125-23.691h-0.003906c-0.42188-0.4375-0.87891-0.83984-1.3672-1.2031-0.54297-0.39063-1.125-0.73047-1.7383-1.0078-19.457-14.359-32.418-32-32.418-51.633 0-6.043-4.8984-10.938-10.938-10.938s-10.938 4.8945-10.938 10.938c0 19.766-13.125 37.461-32.812 51.832-0.40234 0.20312-0.78906 0.43359-1.1602 0.6875-0.4375 0.30859-0.85156 0.64844-1.2344 1.0195-13.836 9.6562-30.625 17.73-48.211 23.812l-0.35156 0.054687v-0.003906c-0.91797 0.19141-1.8008 0.51172-2.625 0.95312-16.324 5.4453-33.195 9.0898-50.312 10.871-1.0156-0.16016-2.0469-0.16016-3.0625 0-0.57031 0.089844-1.1367 0.22656-1.6836 0.40625-4.1875 0.30469-8.2891 0.46875-12.273 0.46875-14.723 0-26.754-2.1875-34.77-6.1914-8.75-4.375-9.8438-9.4844-9.8438-13.41 0-7.3594 6.2109-11.637 22.652-21.121 21.688-12.512 51.406-29.652 70.59-73.688v0.003906c2.4141-5.5391-0.11719-11.988-5.6562-14.406-5.5391-2.4141-11.988 0.11719-14.402 5.6562-7.6562 17.578-17.238 30.09-27.344 39.605-4.9883-0.21875-28.438-1.957-49.711-14.613l-0.1875-0.17578c-0.70703-0.55469-1.4805-1.0156-2.3086-1.3672-10.422-6.543-18.988-15.66-24.871-26.469-0.066406-0.17578-0.12109-0.35938-0.19531-0.53516-0.26562-0.60938-0.59375-1.1914-0.97656-1.7383-1.5078-3.0859-2.7969-6.2734-3.8594-9.5391-2.5508-7.8633-3.7734-16.094-3.6211-24.355 0.042969-0.54688 0.042969-1.0977 0-1.6406 0.80859-22.793 11.09-41.301 15.125-47.719 8.7305-13.73 16.902-19.406 19.918-20.566 2.6133 2.5586 1.8281 14.656 1.2812 22.848-0.66797 10.148-1.4219 21.668 0.94141 32.125 3.1055 13.727 11.004 23.219 23.473 28.219 12.031 4.8008 26.152 2.1211 38.762-7.3711 19.141-14.414 24.98-41.77 13.586-63.633-16.746-32.133-37.594-72.133-37.594-107.65 0-44.57 18.648-86.254 52.5-117.36 33.059-30.336 76.297-47.164 121.16-47.164 44.871 0 88.105 16.828 121.17 47.164 33.906 31.105 52.5 72.789 52.5 117.36 0 35.516-20.848 75.469-37.594 107.65-11.398 21.875-5.5547 49.219 13.586 63.633 12.609 9.4922 26.73 12.172 38.762 7.3711 12.469-4.9883 20.367-14.48 23.473-28.207 2.3633-10.457 1.6094-21.973 0.94141-32.125-0.54688-8.1914-1.3359-20.289 1.2812-22.848 3.0195 1.0938 11.234 6.8359 19.875 20.562 4.0352 6.4102 14.305 24.906 15.125 47.676h-0.003907c-0.042968 0.55859-0.042968 1.1172 0 1.6758 0.25 11.898-2.3945 23.68-7.7109 34.332-0.24219 0.40625-0.46875 0.82031-0.67969 1.2461l-0.21875 0.55859c-5.6445 10.547-13.879 19.484-23.93 25.977-1.1875 0.35938-2.2969 0.92969-3.2812 1.6836-0.41797 0.3125-0.80859 0.66016-1.1719 1.0391-4.3711 2.5039-8.9297 4.6602-13.637 6.4531-11.246 4.2539-23.066 6.7891-35.066 7.5156-10.094-9.5273-19.688-22.027-27.344-39.605-2.418-5.5391-8.8672-8.0703-14.406-5.6562-5.5391 2.418-8.0703 8.8672-5.6523 14.406 19.184 44.035 48.902 61.172 70.59 73.688 16.504 9.4688 22.719 13.746 22.719 21.105z"/>
  <path d="m305.66 213.48 3.8047 0.63281v0.003906c0.60156 0.10547 1.207 0.15625 1.8164 0.15234 5.7969 0.14453 10.699-4.2578 11.176-10.035 0.47656-5.7812-3.6406-10.926-9.3828-11.73l-66.281-11.078c-2.8984-0.56641-5.9023 0.0625-8.3281 1.7461-2.4258 1.6836-4.0664 4.2773-4.5547 7.1875-0.48438 2.9141 0.22656 5.8984 1.9766 8.2773 1.75 2.3789 4.3828 3.9492 7.3086 4.3555l9.6914 1.6172v0.24219c0.003906 8.6445 4.1289 16.766 11.109 21.867 6.9805 5.0977 15.973 6.5625 24.207 3.9375s14.727-9.0195 17.469-17.219z"/>
  <path d="m450.44 181.46-66.281 11.035c-5.5977 0.94531-9.543 6.0234-9.0742 11.684 0.46484 5.6602 5.1875 10.023 10.871 10.039 0.60547 0.003906 1.2148-0.050781 1.8125-0.15234l3.8047-0.63281 0.003907-0.003906c2.7422 8.1992 9.2305 14.594 17.465 17.219 8.2383 2.625 17.23 1.1602 24.211-3.9375 6.9766-5.1016 11.105-13.223 11.109-21.867 0.003906-0.078125 0.003906-0.16016 0-0.23828l9.7031-1.6172-0.003906-0.003907c2.918-0.41406 5.543-1.9922 7.2812-4.3672 1.7422-2.3789 2.4492-5.3594 1.9609-8.2656-0.48438-2.9062-2.125-5.4922-4.543-7.1758-2.418-1.6797-5.4141-2.3164-8.3086-1.7578z"/>
  <path d="m348.62 262.8c-41.039 0-62.66 19.469-63.559 20.289-4.4453 4.0898-4.7344 11.012-0.64453 15.457 4.0898 4.4453 11.008 4.7344 15.457 0.64453 0.16406-0.14062 16.68-14.516 48.75-14.516h-0.003906c12.551-0.17578 24.996 2.3047 36.52 7.2734 4.4062 1.8711 8.5352 4.3242 12.285 7.2969 4.4766 3.9375 11.281 3.5625 15.301-0.83984 4.0195-4.4023 3.7695-11.215-0.55859-15.316-0.91797-0.82031-22.52-20.289-63.547-20.289z"/>
  <use x="70" y="576.40625" xlink:href="#s"/>
  <use x="74.011719" y="576.40625" xlink:href="#d"/>
  <use x="76.710938" y="576.40625" xlink:href="#a"/>
  <use x="80.417969" y="576.40625" xlink:href="#j"/>
  <use x="84.109375" y="576.40625" xlink:href="#c"/>
  <use x="86.722656" y="576.40625" xlink:href="#a"/>
  <use x="90.433594" y="576.40625" xlink:href="#i"/>
  <use x="96.25" y="576.40625" xlink:href="#h"/>
  <use x="100.167969" y="576.40625" xlink:href="#g"/>
  <use x="105.636719" y="576.40625" xlink:href="#f"/>
  <use x="109.867188" y="576.40625" xlink:href="#b"/>
  <use x="113.625" y="576.40625" xlink:href="#e"/>
  <use x="119.324219" y="576.40625" xlink:href="#f"/>
  <use x="123.554688" y="576.40625" xlink:href="#e"/>
  <use x="70" y="581.875" xlink:href="#r"/>
  <use x="72.378906" y="581.875" xlink:href="#d"/>
  <use x="75.078125" y="581.875" xlink:href="#b"/>
  <use x="78.832031" y="581.875" xlink:href="#e"/>
  <use x="86.4375" y="581.875" xlink:href="#c"/>
  <use x="89.050781" y="581.875" xlink:href="#q"/>
  <use x="92.941406" y="581.875" xlink:href="#a"/>
  <use x="98.554688" y="581.875" xlink:href="#p"/>
  <use x="103.132812" y="581.875" xlink:href="#b"/>
  <use x="106.890625" y="581.875" xlink:href="#o"/>
  <use x="110.785156" y="581.875" xlink:href="#n"/>
  <use x="116.582031" y="581.875" xlink:href="#m"/>
  <use x="120.589844" y="581.875" xlink:href="#d"/>
  <use x="123.285156" y="581.875" xlink:href="#b"/>
  <use x="127.042969" y="581.875" xlink:href="#l"/>
  <use x="128.917969" y="581.875" xlink:href="#a"/>
  <use x="132.625" y="581.875" xlink:href="#k"/>
  <use x="135.867188" y="581.875" xlink:href="#c"/>
 </g>
</svg>
